<svg width="64" height="64" viewBox="0 0 64 64" fill="none" xmlns="http://www.w3.org/2000/svg">
<g clip-path="url(#clip0_692_421)">
<path d="M53.5442 8.4841C53.6413 8.57808 53.7383 8.67206 53.8383 8.76889C54.1374 9.05754 54.4405 9.34156 54.7439 9.62561C59.0571 13.7254 61.9516 19.3585 63.1912 25.1555C63.221 25.2886 63.2508 25.4217 63.2815 25.5588C65.0567 33.7373 63.3132 42.519 58.8195 49.5227C54.0657 56.6852 46.7002 61.7863 38.2504 63.5077C37.6431 63.6208 37.0363 63.7151 36.4239 63.797C36.2257 63.8246 36.2257 63.8246 36.0235 63.8527C27.5391 64.9313 19.0128 62.6482 12.2541 57.4338C11.212 56.5793 10.2296 55.6696 9.25412 54.7404C9.09923 54.5985 8.94435 54.4566 8.78478 54.3104C4.55228 50.3066 2.04875 44.7975 0.600027 39.2435C0.563349 39.1059 0.526672 38.9683 0.488883 38.8265C-1.36527 31.4836 0.188522 23.0201 3.82015 16.5014C3.89017 16.3733 3.96018 16.2453 4.03232 16.1133C5.03657 14.2919 6.19332 12.7039 7.58381 11.159C7.82367 10.8904 8.05694 10.616 8.28949 10.341C11.1341 7.02672 14.7592 4.60774 18.7132 2.81586C18.8366 2.75986 18.96 2.70385 19.0872 2.64615C21.957 1.36888 25.051 0.545441 28.1724 0.199508C28.3781 0.174862 28.5838 0.150216 28.7958 0.124823C37.7877 -0.74329 46.9987 2.22121 53.5442 8.4841Z" fill="#C7363D"/>
<path d="M53.5442 8.4841C53.6413 8.57808 53.7383 8.67206 53.8383 8.76889C54.1374 9.05754 54.4405 9.34156 54.7439 9.62561C59.0571 13.7254 61.9516 19.3585 63.1912 25.1555C63.221 25.2886 63.2508 25.4217 63.2815 25.5588C65.0567 33.7373 63.3132 42.519 58.8195 49.5227C54.0657 56.6852 46.7002 61.7863 38.2504 63.5077C37.6431 63.6208 37.0363 63.7151 36.4239 63.797C36.2257 63.8246 36.2257 63.8246 36.0235 63.8527C27.5391 64.9313 19.0128 62.6482 12.2541 57.4338C11.212 56.5793 10.2296 55.6696 9.25412 54.7404C9.09923 54.5985 8.94435 54.4566 8.78478 54.3104C4.55228 50.3066 2.04875 44.7975 0.600027 39.2435C0.563349 39.1059 0.526672 38.9683 0.488883 38.8265C-1.36527 31.4836 0.188522 23.0201 3.82015 16.5014C3.89017 16.3733 3.96018 16.2453 4.03232 16.1133C5.03657 14.2919 6.19332 12.7039 7.58381 11.159C7.82367 10.8904 8.05694 10.616 8.28949 10.341C11.1341 7.02672 14.7592 4.60774 18.7132 2.81586C18.8366 2.75986 18.96 2.70385 19.0872 2.64615C21.957 1.36888 25.051 0.545441 28.1724 0.199508C28.3781 0.174862 28.5838 0.150216 28.7958 0.124823C37.7877 -0.74329 46.9987 2.22121 53.5442 8.4841ZM25.556 2.6146C25.4061 2.64807 25.2562 2.68154 25.1018 2.71602C17.3814 4.44089 10.7451 9.29649 6.43651 15.8976C4.28388 19.3161 3.02049 22.819 2.21009 26.7655C2.16028 26.9923 2.11047 27.219 2.05915 27.4527C0.656202 34.8376 2.82047 42.9004 6.98063 49.0416C8.01897 50.517 9.21077 51.8342 10.4617 53.1303C10.6204 53.3018 10.7792 53.4733 10.9428 53.65C14.456 57.3435 19.1769 59.8083 24.0591 61.1303C24.2798 61.1904 24.2798 61.1904 24.5049 61.2516C26.9972 61.8886 29.5095 62.0752 32.0717 62.0737C32.2203 62.0738 32.3688 62.0739 32.5218 62.074C40.6476 62.0486 47.9481 58.5259 53.6292 52.8299C55.0538 51.3785 56.2601 49.8156 57.3548 48.0989C57.5594 47.7806 57.5594 47.7806 57.7683 47.4558C60.4384 43.061 61.8635 37.9177 61.8349 32.7963C61.8328 32.3406 61.8349 31.8851 61.8375 31.4295C61.8401 28.9106 61.653 26.4187 60.9522 23.9857C60.9101 23.8369 60.8679 23.6881 60.8244 23.5348C60.3047 21.7895 59.5608 20.1477 58.7636 18.514C58.6642 18.3093 58.5648 18.1046 58.4625 17.8937C56.7126 14.508 54.075 11.25 51.1158 8.8536C51.0146 8.77051 50.9135 8.68743 50.8093 8.60183C46.8152 5.36089 42.0732 3.31081 37.0277 2.41334C36.8549 2.37944 36.6821 2.34554 36.5041 2.3106C34.9473 2.02202 33.4395 1.94041 31.8579 1.94794C31.4863 1.94942 31.4863 1.94942 31.1072 1.95093C29.1907 1.97549 27.4141 2.16231 25.556 2.6146Z" fill="#FEFBFC"/>
<path d="M45.1038 14.1796C47.1729 15.883 48.8539 18.2132 49.1495 20.9434C49.3833 24.2584 48.6513 27.1146 46.4678 29.6795C44.4286 31.8413 41.9643 32.9803 38.9981 33.0758C35.8418 33.119 33.462 32.1304 31.1431 29.9689C28.9174 27.6464 28.088 24.8125 28.118 21.6748C28.3275 18.8836 29.7636 16.3735 31.7964 14.4909C35.8808 11.46 40.915 11.0956 45.1038 14.1796Z" fill="#C7363D"/>
<path d="M27.2472 33.9733C30.6372 33.818 33.9868 35.1617 37.1304 36.2575C37.5705 36.4055 38.0102 36.5383 38.4579 36.6611C39.0503 36.8317 39.3213 36.9136 39.6489 37.4339C39.7495 37.9119 39.7495 37.9119 39.6489 38.4402C39.2111 38.9472 38.8418 39.3469 38.2401 39.6478C37.6549 39.6735 37.0769 39.686 36.4917 39.6855C36.3214 39.6855 36.1511 39.6855 35.9756 39.6855C32.2106 39.6519 32.2106 39.6519 30.9948 39.044C31.1277 39.661 31.1277 39.661 31.564 39.8687C36.1441 41.6934 40.6619 40.7643 45.0546 38.9292C45.5822 38.689 46.0855 38.4314 46.5923 38.1509C47.4184 37.7821 47.8445 37.7794 48.7055 38.0377C49.1797 38.749 49.2066 39.0109 49.108 39.849C47.6414 43.0616 41.8856 45.1816 38.8439 46.4906C36.9767 47.1129 34.8537 46.5663 32.9641 46.2461C32.1205 46.1038 31.2788 45.9961 30.4288 45.8994C29.0735 45.7367 27.7341 45.5135 26.391 45.2704C26.1957 45.2353 26.0004 45.2002 25.7992 45.1639C24.405 44.9063 24.405 44.9063 23.9508 44.6792C22.8871 44.5273 22.3384 44.8714 21.5019 45.4654C21.1332 45.6855 21.1332 45.6855 20.5294 45.6855C20.5022 43.5885 20.571 41.5037 20.6793 39.41C20.7059 38.8855 20.7297 38.361 20.7535 37.8365C20.7703 37.5021 20.7873 37.1677 20.8046 36.8333C20.8113 36.6769 20.818 36.5206 20.8249 36.3595C20.8859 35.2661 20.8859 35.2661 21.3344 34.8176C21.8731 34.6941 22.4 34.5913 22.9445 34.5031C23.0998 34.4771 23.2551 34.4511 23.4151 34.4243C24.6923 34.2147 25.9584 34.0791 27.2472 33.9733Z" fill="#FEFCFC"/>
<path d="M45.1038 14.1796C47.1729 15.883 48.8539 18.2132 49.1495 20.9434C49.3833 24.2584 48.6513 27.1146 46.4678 29.6795C44.4286 31.8413 41.9643 32.9803 38.9981 33.0758C35.8418 33.119 33.462 32.1304 31.1431 29.9689C28.9174 27.6464 28.088 24.8125 28.118 21.6748C28.3275 18.8836 29.7636 16.3735 31.7964 14.4909C35.8808 11.46 40.915 11.0956 45.1038 14.1796ZM32.379 17.3659C31.026 19.14 30.3388 21.3201 30.5889 23.5475C30.8835 25.658 32.0228 27.5812 33.6077 28.9814C35.8126 30.444 37.93 30.9659 40.5551 30.4531C42.8048 29.8246 44.5175 28.5674 45.7343 26.5506C46.7455 24.5955 47.0549 22.4984 46.5511 20.3376C46.3624 19.8365 46.147 19.385 45.8845 18.9185C45.7968 18.7618 45.7091 18.6051 45.6188 18.4437C44.3518 16.3805 42.5898 15.1725 40.2618 14.5286C39.9567 14.5099 39.9567 14.5099 39.6455 14.4909C39.4701 14.4784 39.2947 14.466 39.114 14.4531C36.4283 14.343 34.2025 15.3868 32.379 17.3659Z" fill="#FDFAFA"/>
<path d="M12.2112 34.3479C12.3969 34.3488 12.5826 34.3497 12.7739 34.3506C12.9704 34.3549 13.1668 34.3592 13.3692 34.3636C13.5685 34.366 13.7678 34.3683 13.9732 34.3708C17.7404 34.4297 17.7404 34.4297 18.5139 34.8165C18.5527 37.0657 18.459 39.2834 18.278 41.5249C18.2364 42.0457 18.1982 42.5667 18.1601 43.0877C18.1341 43.4203 18.1079 43.7528 18.0815 44.0853C18.0704 44.2405 18.0592 44.3956 18.0478 44.5554C17.9563 45.6382 17.9563 45.6382 17.5076 46.0869C16.9326 46.1247 16.3774 46.1384 15.8024 46.1333C15.6337 46.1332 15.465 46.1331 15.2912 46.133C14.9344 46.1324 14.5776 46.1308 14.2208 46.1283C13.6726 46.1247 13.1245 46.1242 12.5764 46.1243C12.2303 46.1233 11.8843 46.1221 11.5382 46.1207C11.2908 46.1204 11.2908 46.1204 11.0383 46.12C9.88314 46.1103 9.88314 46.1103 9.65853 45.8857C9.4873 43.7819 9.79837 41.6637 10.0553 39.5796C10.1246 39.0122 10.1894 38.4443 10.254 37.8762C10.2977 37.514 10.3416 37.1519 10.3857 36.7897C10.4046 36.6206 10.4235 36.4514 10.443 36.2771C10.6085 34.9868 10.8419 34.3325 12.2112 34.3479Z" fill="#FEFCFC"/>
<path d="M38.034 17.1079C38.4364 17.0993 38.8391 17.0996 39.2416 17.1079C39.4428 17.3091 39.4428 17.3091 39.4554 17.8248C39.4512 17.9867 39.4471 18.1486 39.4428 18.3154C39.7292 18.359 39.7292 18.359 40.0214 18.4035C40.6504 18.5167 40.6504 18.5167 41.0529 18.7179C40.9865 19.05 40.92 19.3821 40.8516 19.7242C40.0627 19.971 39.4451 19.8653 38.6425 19.736C38.5081 19.7321 38.3737 19.7282 38.2353 19.7242C38.1024 19.857 37.9696 19.9899 37.8327 20.1267C37.8071 20.6336 37.8071 20.6336 38.034 21.133C38.5526 21.4756 38.5526 21.4756 39.1912 21.7242C40.2384 22.2129 40.8781 22.5379 41.4554 23.5481C41.594 24.4107 41.519 24.8297 41.1283 25.611C40.6504 26.1645 40.6504 26.1645 40.0214 26.4538C39.3652 26.7284 39.3652 26.7284 39.1661 27.5104C39.1246 27.7304 39.0831 27.9504 39.0403 28.177C38.7082 28.1106 38.3761 28.0442 38.034 27.9758C38.034 27.5773 38.034 27.1788 38.034 26.7682C37.3699 26.6354 36.7057 26.5026 36.0214 26.3657C36.0214 26.0336 36.0214 25.7016 36.0214 25.3594C36.3611 25.133 36.3611 25.133 36.8265 24.9569C36.98 25.0192 37.1336 25.0814 37.2919 25.1456C38.0123 25.4304 38.4954 25.3271 39.2416 25.1582C39.7004 24.7934 39.7004 24.7934 39.648 24.2714C39.3488 23.5103 38.9 23.3881 38.1724 23.045C37.2193 22.5925 36.6029 22.2283 36.0214 21.3343C35.8872 20.6093 35.8782 20.1625 36.2651 19.5222C36.5705 19.1385 36.8371 18.8124 37.229 18.5167C37.4946 18.5167 37.7603 18.5167 38.034 18.5167C38.034 18.0518 38.034 17.5868 38.034 17.1079Z" fill="#FDF6F7"/>
<path d="M15.0969 41.4592C15.6001 41.7737 15.6001 41.7737 15.902 42.2642C16.0471 43.1513 16.0066 43.524 15.4869 44.2642C14.7466 44.784 14.374 44.8245 13.4869 44.6793C12.9963 44.3774 12.9963 44.3774 12.6819 43.8743C12.5212 43.0659 12.5573 42.4718 12.9837 41.7611C13.6945 41.3346 14.2885 41.2985 15.0969 41.4592Z" fill="#C7363D"/>
</g>
<defs>
<clipPath id="clip0_692_421">
<rect width="63.7987" height="64" fill="white"/>
</clipPath>
</defs>
</svg>
