<svg width="64" height="64" viewBox="0 0 64 64" fill="none" xmlns="http://www.w3.org/2000/svg">
<path d="M22.9314 2.09901C23.029 2.09813 23.1266 2.09724 23.2272 2.09634C27.2856 2.06797 27.2856 2.06797 29.0032 2.4994C29.1058 2.52423 29.2084 2.54907 29.3141 2.57466C33.1727 3.52982 36.6318 5.36612 39.5032 8.1244C39.5645 8.1818 39.6258 8.23921 39.6889 8.29835C44.0305 12.3744 46.0682 17.9363 46.4016 23.7855C46.4664 26.598 45.908 29.3476 44.9714 31.9839C44.8094 32.4454 44.6566 32.91 44.5032 33.3744C44.6683 33.5286 44.6683 33.5286 44.8367 33.6859C45.899 34.6975 46.7592 35.5278 46.8235 37.0697C46.7999 37.7139 46.6737 38.1988 46.3625 38.7616C46.2183 39.0315 46.2183 39.0315 46.2532 39.4994C46.4967 39.7626 46.7339 39.9921 47.0032 40.226C47.0782 40.293 47.1532 40.36 47.2305 40.4291C47.4453 40.6205 47.6615 40.8101 47.8782 40.9994C47.967 41.0785 48.0557 41.1576 48.1472 41.2391C48.5189 41.5686 48.8969 41.8905 49.2751 42.2123C50.1304 42.9409 50.9708 43.6813 51.7961 44.4437C52.361 44.9638 52.9409 45.4653 53.5256 45.9628C54.3808 46.6912 55.221 47.4315 56.0461 48.1937C56.6095 48.7124 57.1876 49.2128 57.7712 49.7084C58.2257 50.0946 58.6774 50.4839 59.1282 50.8744C59.2027 50.9385 59.2773 51.0026 59.3541 51.0687C60.6611 52.1995 61.6548 53.3732 62.0032 55.1244C62.1306 56.9612 61.8751 58.5637 60.6282 59.9994C59.7237 60.9641 58.5988 61.7827 57.2387 61.8965C54.7257 61.9646 54.7257 61.9646 53.6282 61.3744C53.5162 61.3166 53.4042 61.2587 53.2888 61.1991C51.9359 60.4231 51.0208 59.1851 50.0588 57.9887C49.6339 57.4823 49.1809 57.0045 48.7278 56.5234C48.3225 56.0906 47.9364 55.6503 47.5657 55.1869C46.9956 54.4749 46.376 53.8153 45.7527 53.1503C45.2055 52.5664 44.6842 51.9622 44.1658 51.3529C44.0387 51.2038 43.9116 51.0547 43.7844 50.9057C43.7201 50.8302 43.6557 50.7547 43.5894 50.677C43.1668 50.1838 42.7343 49.7018 42.2922 49.226C41.7608 48.6536 41.2615 48.0608 40.7717 47.4525C40.3641 46.9545 39.9352 46.4762 39.5032 45.9994C39.417 46.0431 39.3308 46.0867 39.2419 46.1317C38.1935 46.6394 37.3091 46.9094 36.1589 46.6044C35.1683 46.234 34.4952 45.5146 33.8103 44.7343C33.5244 44.4669 33.5244 44.4669 33.1765 44.4965C32.6995 44.6406 32.2296 44.799 31.7601 44.9657C26.0776 46.9787 19.9955 46.6203 14.5422 44.0853C9.33111 41.5894 5.35853 37.0222 3.37817 31.6244C2.84952 30.0737 2.48302 28.4953 2.25317 26.8744C2.23674 26.7621 2.2203 26.6498 2.20337 26.5341C1.53421 20.8282 3.27962 15.0127 6.78882 10.5077C7.064 10.1674 7.34402 9.83226 7.62817 9.4994C7.71325 9.39885 7.79833 9.29831 7.88598 9.19471C8.42538 8.57103 8.99653 8.0278 9.62817 7.4994C9.73146 7.40723 9.83474 7.31506 9.94116 7.2201C13.4199 4.18165 18.2805 2.12706 22.9314 2.09901Z" fill="#C7363D"/>
<path d="M35.0904 11.0317C35.4016 11.3062 35.7027 11.5882 36.0021 11.8755C36.1137 11.9793 36.2254 12.083 36.3404 12.1899C38.7508 14.4958 40.3514 17.6132 41.0021 20.8755C41.0275 20.9928 41.053 21.1101 41.0792 21.231C41.8966 25.5754 40.7058 30.2721 38.2374 33.8882C35.4618 37.7109 31.5226 40.2194 26.8473 41.0181C25.9681 41.1454 25.1003 41.1686 24.213 41.1646C24.0539 41.164 23.8947 41.1635 23.7308 41.163C22.5637 41.149 21.5062 41.0442 20.3771 40.7505C20.2262 40.7171 20.0754 40.6838 19.92 40.6494C17.0749 39.977 14.6304 38.4686 12.5021 36.5005C12.3981 36.4054 12.2942 36.3104 12.1871 36.2124C9.92474 34.0491 8.42575 31.1275 7.62707 28.1255C7.58695 27.9806 7.54683 27.8358 7.50549 27.6865C6.96435 25.3584 7.01906 22.6844 7.62707 20.3755C7.66188 20.2219 7.69668 20.0684 7.73254 19.9102C8.7969 15.4738 11.7708 11.8313 15.6012 9.45118C21.7029 5.79401 29.6471 6.50738 35.0904 11.0317Z" fill="#FDFDFE"/>
<path d="M44.25 33.375C45.264 33.7949 46.2256 34.9256 46.6572 35.9165C46.9346 36.9137 46.8594 37.8577 46.3594 38.7622C46.2152 39.0321 46.2152 39.0321 46.25 39.5C46.4935 39.7632 46.7308 39.9927 47 40.2266C47.075 40.2936 47.15 40.3606 47.2273 40.4297C47.4421 40.6211 47.6584 40.8107 47.875 41C47.9638 41.0791 48.0526 41.1582 48.144 41.2397C48.5157 41.5691 48.8937 41.8911 49.272 42.2129C50.1273 42.9415 50.9676 43.6819 51.793 44.4443C52.3579 44.9644 52.9377 45.4659 53.5225 45.9634C54.3776 46.6918 55.2178 47.4321 56.043 48.1943C56.6064 48.713 57.1844 49.2134 57.7681 49.709C58.2225 50.0952 58.6742 50.4845 59.125 50.875C59.1995 50.9391 59.2741 51.0032 59.3509 51.0693C60.6579 52.2001 61.6516 53.3738 62 55.125C62.1275 56.9618 61.872 58.5643 60.625 60C59.7205 60.9647 58.5956 61.7833 57.2356 61.8971C54.7225 61.9652 54.7225 61.9652 53.625 61.375C53.457 61.2882 53.457 61.2882 53.2856 61.1997C51.9328 60.4237 51.0176 59.1857 50.0557 57.9893C49.6307 57.4829 49.1777 57.0051 48.7247 56.524C48.3193 56.0912 47.9332 55.6509 47.5625 55.1875C46.9924 54.4755 46.3728 53.8159 45.7495 53.1509C45.2024 52.567 44.6811 51.9628 44.1626 51.3535C44.0355 51.2044 43.9084 51.0553 43.7812 50.9062C43.7169 50.8308 43.6525 50.7553 43.5862 50.6776C43.1636 50.1844 42.7311 49.7024 42.2891 49.2266C41.7576 48.6542 41.2584 48.0614 40.7686 47.4531C40.3609 46.9551 39.9321 46.4768 39.5 46C39.4138 46.0437 39.3276 46.0873 39.2388 46.1323C38.1906 46.6399 37.3051 46.9109 36.1553 46.6045C35.0369 46.1875 34.1477 45.2589 33.375 44.375C33.375 44.2925 33.375 44.21 33.375 44.125C33.4454 44.0899 33.5157 44.0548 33.5882 44.0186C35.7989 42.9081 37.6654 41.6547 39.5 40C39.5936 39.9156 39.6872 39.8311 39.7837 39.7441C40.5718 38.9929 41.2212 38.1172 41.875 37.25C41.9551 37.1443 42.0352 37.0386 42.1177 36.9297C42.7419 36.0723 43.2424 35.1465 43.7527 34.2189C43.912 33.9337 44.0796 33.6538 44.25 33.375Z" fill="#C7363D"/>
<path d="M44.25 33.375C45.264 33.7949 46.2256 34.9256 46.6572 35.9165C46.9283 36.8909 46.8522 37.8402 46.4204 38.75C46.193 39.0837 45.9126 39.3416 45.625 39.625C45.5246 39.7254 45.4241 39.8259 45.3207 39.9293C43.3805 41.8695 41.4402 43.8098 39.5 45.75C39.4132 45.8407 39.3263 45.9314 39.2368 46.0249C38.6297 46.602 37.8124 46.7473 37 46.75C35.4586 46.6273 34.3444 45.484 33.375 44.375C33.375 44.2925 33.375 44.21 33.375 44.125C33.4454 44.0899 33.5157 44.0548 33.5882 44.0186C35.7989 42.9081 37.6654 41.6547 39.5 40C39.5936 39.9156 39.6872 39.8311 39.7837 39.7441C40.5718 38.9929 41.2212 38.1172 41.875 37.25C41.9551 37.1443 42.0352 37.0386 42.1177 36.9297C42.7419 36.0723 43.2424 35.1465 43.7527 34.2189C43.912 33.9337 44.0796 33.6538 44.25 33.375Z" fill="#B8B8B8"/>
<path d="M32.7584 18.4507C32.9078 18.4502 33.0572 18.4497 33.2111 18.4492C33.3672 18.4507 33.5234 18.4521 33.6842 18.4536C33.8404 18.4522 33.9965 18.4507 34.1574 18.4492C34.3814 18.4499 34.3814 18.4499 34.61 18.4507C34.747 18.4511 34.8841 18.4515 35.0253 18.452C35.4233 18.5077 35.5068 18.5638 35.7467 18.8755C35.7943 19.133 35.7943 19.133 35.7952 19.4345C35.7964 19.5489 35.7977 19.6633 35.7989 19.7813C35.7981 19.9692 35.7981 19.9692 35.7972 20.1609C35.7981 20.293 35.7989 20.4251 35.7998 20.5613C35.8021 20.9992 35.8016 21.4371 35.8009 21.875C35.8015 22.1787 35.8022 22.4825 35.8029 22.7862C35.804 23.4233 35.8037 24.0604 35.8025 24.6975C35.801 25.5149 35.8036 26.3321 35.8072 27.1494C35.8095 27.7768 35.8095 28.4042 35.8088 29.0317C35.8087 29.333 35.8095 29.6344 35.811 29.9358C35.8129 30.3569 35.8116 30.7779 35.8094 31.1989C35.8106 31.324 35.8119 31.449 35.8131 31.5778C35.8041 32.4196 35.8041 32.4196 35.5146 32.8279C35.16 33.0563 34.9205 33.0632 34.5001 33.0625C34.3568 33.0626 34.2135 33.0627 34.0658 33.0627C33.9167 33.0602 33.7676 33.0577 33.6139 33.0552C33.4643 33.0561 33.3147 33.0569 33.1605 33.0579C32.0619 33.0498 32.0619 33.0498 31.7914 32.8451C31.5752 32.5652 31.5746 32.4123 31.5741 32.0609C31.573 31.9452 31.572 31.8296 31.5709 31.7104C31.5717 31.5838 31.5724 31.4571 31.5732 31.3267C31.5725 31.1931 31.5719 31.0595 31.5712 30.9219C31.5696 30.4793 31.5707 30.0368 31.5719 29.5942C31.5717 29.2874 31.5713 28.9805 31.5708 28.6737C31.5703 28.0302 31.5711 27.3867 31.5728 26.7432C31.575 25.9172 31.5737 25.0912 31.5715 24.2652C31.5701 23.6314 31.5706 22.9977 31.5715 22.364C31.5718 22.0594 31.5715 21.7547 31.5706 21.4501C31.5697 21.0248 31.5711 20.5996 31.5732 20.1743C31.5724 20.0477 31.5717 19.921 31.5709 19.7906C31.572 19.6749 31.573 19.5592 31.5741 19.4401C31.5742 19.3395 31.5744 19.2389 31.5745 19.1353C31.6958 18.4675 32.1653 18.4525 32.7584 18.4507Z" fill="#C7363D"/>
<path d="M20.1395 22.4507C20.2889 22.4502 20.4383 22.4497 20.5922 22.4492C20.7483 22.4507 20.9044 22.4521 21.0653 22.4536C21.2214 22.4522 21.3776 22.4507 21.5385 22.4492C21.7625 22.4499 21.7625 22.4499 21.9911 22.4507C22.1281 22.4511 22.2652 22.4515 22.4064 22.452C22.7528 22.5005 22.7528 22.5005 22.9588 22.6328C23.215 23.0008 23.181 23.3745 23.1783 23.8071C23.1792 23.9017 23.18 23.9962 23.1809 24.0936C23.1832 24.4064 23.1827 24.719 23.182 25.0317C23.1826 25.2489 23.1832 25.4661 23.184 25.6832C23.1851 26.1384 23.1848 26.5936 23.1836 27.0488C23.1821 27.6327 23.1847 28.2165 23.1883 28.8004C23.1906 29.2488 23.1906 29.6973 23.1898 30.1457C23.1898 30.361 23.1906 30.5763 23.1921 30.7916C23.194 31.0924 23.1927 31.3931 23.1905 31.6938C23.1917 31.7831 23.1929 31.8723 23.1942 31.9642C23.1882 32.3664 23.1792 32.5719 22.8949 32.8681C22.3324 33.147 21.6798 33.059 21.0653 33.0552C20.9227 33.0577 20.7801 33.0602 20.6332 33.0627C20.4961 33.0627 20.3589 33.0626 20.2176 33.0625C20.0925 33.0627 19.9674 33.063 19.8385 33.0632C19.3974 32.9808 19.2746 32.8558 19.0028 32.5005C18.9541 32.1714 18.9356 31.8948 18.9401 31.5661C18.9394 31.4728 18.9387 31.3794 18.938 31.2833C18.9365 30.9752 18.9385 30.6674 18.9408 30.3594C18.9408 30.1452 18.9406 29.931 18.9402 29.7168C18.9401 29.2682 18.9416 28.8197 18.9445 28.3711C18.948 27.7958 18.9477 27.2205 18.9461 26.6452C18.9452 26.2031 18.9462 25.761 18.9478 25.3188C18.9483 25.1067 18.9484 24.8945 18.9479 24.6824C18.9475 24.3861 18.9496 24.0899 18.9523 23.7937C18.9517 23.7058 18.9512 23.6179 18.9506 23.5274C18.9561 23.1703 18.964 22.931 19.1718 22.6336C19.4898 22.4281 19.7646 22.4518 20.1395 22.4507Z" fill="#C7363D"/>
<path d="M26.4818 24.0757C26.6255 24.0752 26.7693 24.0747 26.9173 24.0742C27.0675 24.0757 27.2177 24.0771 27.3724 24.0786C27.5226 24.0772 27.6728 24.0757 27.8275 24.0742C28.0431 24.0749 28.0431 24.0749 28.263 24.0757C28.4608 24.0763 28.4608 24.0763 28.6625 24.077C28.9974 24.1255 28.9974 24.1255 29.2028 24.2671C29.4493 24.6062 29.4201 24.8665 29.4209 25.283C29.4221 25.4444 29.4233 25.6058 29.4245 25.7721C29.4239 25.9485 29.4231 26.1249 29.4222 26.3013C29.4225 26.482 29.4228 26.6627 29.4233 26.8435C29.4239 27.2222 29.4231 27.6008 29.4213 27.9796C29.4192 28.4651 29.4204 28.9505 29.4226 29.436C29.424 29.8092 29.4236 30.1824 29.4226 30.5555C29.4223 30.7345 29.4227 30.9136 29.4235 31.0926C29.4245 31.3427 29.4228 31.5929 29.4209 31.843C29.4206 31.9854 29.4203 32.1278 29.42 32.2745C29.3724 32.6255 29.3724 32.6255 29.2028 32.8589C28.8932 33.0724 28.6355 33.0491 28.263 33.0503C28.1193 33.0508 27.9756 33.0513 27.8275 33.0518C27.6773 33.0503 27.5271 33.0489 27.3724 33.0474C27.2222 33.0488 27.0721 33.0503 26.9173 33.0518C26.7017 33.051 26.7017 33.051 26.4818 33.0503C26.35 33.0499 26.2182 33.0494 26.0824 33.049C25.7474 33.0005 25.7474 33.0005 25.542 32.8589C25.2956 32.5197 25.3248 32.2595 25.3239 31.843C25.3227 31.6816 25.3215 31.5202 25.3203 31.3538C25.321 31.1775 25.3218 31.0011 25.3226 30.8247C25.3224 30.644 25.322 30.4632 25.3215 30.2825C25.321 29.9038 25.3218 29.5251 25.3235 29.1464C25.3257 28.6609 25.3244 28.1755 25.3222 27.69C25.3208 27.3168 25.3213 26.9436 25.3222 26.5704C25.3225 26.3914 25.3222 26.2124 25.3213 26.0334C25.3204 25.7832 25.3221 25.5331 25.3239 25.283C25.3242 25.1406 25.3245 24.9982 25.3248 24.8515C25.3724 24.5005 25.3724 24.5005 25.542 24.2671C25.8517 24.0536 26.1093 24.0769 26.4818 24.0757Z" fill="#C7363D"/>
<path d="M32.7422 13.3498C32.8707 13.3482 32.9992 13.3467 33.1316 13.3451C33.2543 13.3449 33.377 13.3446 33.5034 13.3444C33.6165 13.3439 33.7296 13.3434 33.8462 13.3428C34.125 13.3732 34.125 13.3732 34.375 13.6232C34.4073 13.9115 34.4073 13.9115 34.4082 14.2677C34.4085 14.3955 34.4088 14.5233 34.4092 14.6549C34.4082 14.7888 34.4072 14.9227 34.4062 15.0607C34.4072 15.1946 34.4082 15.3285 34.4092 15.4665C34.4089 15.5942 34.4085 15.722 34.4082 15.8537C34.4079 15.9712 34.4076 16.0888 34.4073 16.2099C34.375 16.4982 34.375 16.4982 34.125 16.7482C33.683 16.6812 33.683 16.6812 33.5 16.4982C33.4709 16.288 33.4484 16.0768 33.4297 15.8654C33.4192 15.7505 33.4087 15.6356 33.3979 15.5172C33.3904 15.4285 33.3828 15.3397 33.375 15.2482C33.2873 15.3449 33.1997 15.4416 33.1094 15.5412C32.496 16.2153 31.8774 16.8774 31.2275 17.5168C31.0005 17.7477 30.7888 17.9866 30.5781 18.2326C30.1377 18.7455 29.6599 19.2152 29.1792 19.6901C28.831 20.0427 28.5049 20.4093 28.1841 20.7868C28.1233 20.8566 28.0626 20.9263 28 20.9982C27.9431 21.0718 27.8862 21.1455 27.8276 21.2214C27.625 21.3732 27.625 21.3732 27.3307 21.3385C27.0022 21.2488 26.788 21.1431 26.5063 20.9552C26.4122 20.8931 26.318 20.831 26.2209 20.767C26.1197 20.6989 26.0184 20.6309 25.9141 20.5607C25.8075 20.4906 25.7009 20.4205 25.5911 20.3483C25.0087 19.9648 24.4299 19.5762 23.8529 19.1845C23.5586 18.9853 23.2633 18.7876 22.9678 18.5901C22.8227 18.4925 22.6782 18.3941 22.5342 18.295C22.3313 18.1553 22.1266 18.0184 21.9219 17.8815C21.7454 17.7615 21.7454 17.7615 21.5654 17.6391C21.2649 17.4652 21.2649 17.4652 20.9913 17.5672C20.7078 17.7799 20.4647 18.0077 20.2168 18.2614C20.1158 18.3638 20.0147 18.4662 19.9106 18.5717C19.7538 18.7325 19.7538 18.7325 19.5938 18.8966C18.9485 19.5556 18.3027 20.1988 17.6022 20.7991C17.2569 21.1017 16.9377 21.4276 16.6172 21.756C15.4897 22.8911 15.4897 22.8911 15 23.2482C14.7266 23.2028 14.7266 23.2028 14.5 23.1232C14.4097 22.8434 14.4097 22.8434 14.375 22.4982C14.5515 22.2346 14.5515 22.2346 14.8198 21.9757C14.9172 21.8802 15.0146 21.7846 15.115 21.6862C15.2188 21.5881 15.3227 21.4899 15.4297 21.3888C15.5789 21.2431 15.5789 21.2431 15.7312 21.0944C16.2707 20.5712 16.8252 20.0701 17.3936 19.5787C17.7578 19.2552 18.0972 18.909 18.4375 18.5607C18.9561 18.0355 19.4793 17.5276 20.0454 17.0529C20.2432 16.8792 20.4119 16.6952 20.5859 16.4982C20.6813 16.4157 20.7767 16.3332 20.875 16.2482C21.3397 16.2897 21.6487 16.4372 22.0298 16.6979C22.1309 16.7663 22.2321 16.8347 22.3363 16.9051C22.4986 17.0169 22.4986 17.0169 22.6641 17.131C22.8971 17.2891 23.1302 17.4471 23.3633 17.6051C23.4861 17.6888 23.6088 17.7725 23.7354 17.8587C24.4168 18.3213 25.1033 18.7765 25.7891 19.2326C26.0464 19.4041 26.3037 19.5756 26.561 19.7472C26.7245 19.8562 26.7245 19.8562 26.8913 19.9674C26.9684 20.0188 27.0455 20.0702 27.125 20.1232C27.9216 19.7439 28.4711 19.0588 29.0391 18.3966C29.458 17.9087 29.9108 17.4587 30.3682 17.0074C30.7787 16.6003 31.1621 16.1785 31.5371 15.7389C31.9207 15.3052 32.3359 14.9026 32.75 14.4982C32.6055 14.489 32.6055 14.489 32.458 14.4797C32.27 14.4656 32.27 14.4656 32.0781 14.4513C31.8911 14.4383 31.8911 14.4383 31.7002 14.425C31.375 14.3732 31.375 14.3732 31.125 14.1232C31.2492 13.105 31.8599 13.3503 32.7422 13.3498Z" fill="#C7363D"/>
<path d="M13.964 27.4316C14.1697 27.4307 14.1697 27.4307 14.3795 27.4297C14.5221 27.4316 14.6647 27.4336 14.8117 27.4355C15.0256 27.4326 15.0256 27.4326 15.2438 27.4297C15.3809 27.4303 15.518 27.431 15.6593 27.4316C15.847 27.4325 15.847 27.4325 16.0385 27.4333C16.4818 27.5188 16.6208 27.6239 16.8742 27.998C16.9239 28.3532 16.9444 28.6589 16.9406 29.0137C16.941 29.1117 16.9415 29.2096 16.942 29.3106C16.9424 29.5174 16.9414 29.7242 16.9393 29.9309C16.9367 30.247 16.9393 30.5628 16.9425 30.8789C16.9422 31.0801 16.9415 31.2813 16.9406 31.4824C16.9416 31.5767 16.9426 31.671 16.9436 31.7681C16.9361 32.1904 16.9038 32.4543 16.6647 32.8074C16.3046 33.0437 16.0884 33.0625 15.6593 33.0645C15.5222 33.0651 15.3851 33.0657 15.2438 33.0664C15.1012 33.0645 14.9586 33.0625 14.8117 33.0605C14.6691 33.0625 14.5265 33.0644 14.3795 33.0664C14.2424 33.0658 14.1053 33.0651 13.964 33.0645C13.7763 33.0636 13.7763 33.0636 13.5849 33.0627C13.1415 32.9773 13.0025 32.8722 12.7492 32.498C12.6994 32.1429 12.6789 31.8372 12.6828 31.4824C12.6823 31.3844 12.6818 31.2864 12.6813 31.1855C12.681 30.9787 12.6819 30.7719 12.684 30.5652C12.6867 30.2491 12.684 29.9333 12.6808 29.6172C12.6811 29.416 12.6818 29.2148 12.6828 29.0137C12.6817 28.9194 12.6807 28.8251 12.6797 28.728C12.6872 28.3057 12.7195 28.0418 12.9586 27.6887C13.3188 27.4524 13.5349 27.4336 13.964 27.4316Z" fill="#C7363D"/>
</svg>
