<svg width="64" height="64" viewBox="0 0 64 64" fill="none" xmlns="http://www.w3.org/2000/svg">
<path d="M23.9784 2.79926C24.399 2.79266 24.8195 2.78606 25.2528 2.77926C25.6536 2.77761 26.0543 2.77596 26.4672 2.77426C26.8372 2.77126 27.2072 2.76827 27.5884 2.76519C27.8821 2.80283 28.1758 2.84047 28.4784 2.87926C29.2047 3.96864 29.2354 4.53213 29.3184 5.81926C29.3543 6.34086 29.3543 6.34086 29.3909 6.873C29.4066 7.13907 29.4223 7.40513 29.4384 7.67926C29.9424 7.91198 30.4497 8.13724 30.9584 8.35926C31.2406 8.48548 31.5227 8.61171 31.8134 8.74176C32.6177 9.03322 32.6177 9.03322 33.3147 8.74051C34.1459 8.16053 34.8387 7.47736 35.5572 6.7655C36.1584 6.39926 36.1584 6.39926 36.9199 6.4716C38.3746 6.90124 39.2362 8.00018 40.2784 9.05926C40.5028 9.27602 40.7272 9.49279 40.9584 9.71613C41.274 10.0326 41.274 10.0326 41.5959 10.3555C41.7885 10.5479 41.9811 10.7402 42.1795 10.9384C42.5584 11.5193 42.5584 11.5193 42.4813 12.1296C42.2005 12.9037 41.8756 13.2782 41.2915 13.8552C41.0929 14.0537 40.8943 14.2522 40.6897 14.4567C40.4744 14.6671 40.259 14.8775 40.0372 15.0943C39.8175 15.3126 39.5977 15.531 39.3713 15.756C38.6693 16.4527 37.9639 17.146 37.2584 17.8393C36.7818 18.3111 36.3053 18.7832 35.8291 19.2555C34.6613 20.4126 33.4907 21.5667 32.3184 22.7193C31.6797 22.1111 31.2569 21.5982 30.7784 20.8393C29.4524 18.9449 27.8387 17.7917 25.5984 17.2793C23.2381 17.0049 21.2106 17.3132 19.2272 18.6518C17.5527 19.9814 16.4244 21.5492 15.9984 23.6793C15.7086 26.2713 16.0944 28.2468 17.5984 30.3993C18.7025 31.6139 19.8499 32.4779 21.4384 32.9593C21.018 33.889 20.5679 34.5486 19.8445 35.2658C19.6524 35.4579 19.4602 35.65 19.2623 35.8479C19.0556 36.0513 18.8489 36.2547 18.6359 36.4643C18.4238 36.6755 18.2116 36.8868 17.993 37.1045C17.3163 37.7776 16.6374 38.4484 15.9584 39.1193C15.4987 39.5758 15.0391 40.0324 14.5797 40.4893C13.4543 41.6076 12.3269 42.724 11.1984 43.8393C9.73375 43.1345 8.76216 42.1606 7.61844 41.0193C7.41322 40.8219 7.208 40.6245 6.99656 40.4211C6.16863 39.5984 5.53237 38.9413 5.07469 37.8593C5.13454 36.8469 5.49648 36.4965 6.19844 35.7793C7.0435 34.9235 7.0435 34.9235 7.67844 33.9193C7.43151 33.1507 7.43151 33.1507 7.05844 32.3193C6.39844 30.78 6.39844 30.78 6.39844 30.0793C6.07875 30.083 5.75906 30.0867 5.42969 30.0905C5.01677 30.0934 4.60386 30.0963 4.17844 30.0993C3.76635 30.103 3.35426 30.1067 2.92969 30.1105C1.91844 30.0793 1.91844 30.0793 1.59844 29.7593C1.50823 28.2746 1.52425 26.7863 1.51844 25.2993C1.51184 24.8787 1.50524 24.4582 1.49844 24.0249C1.49679 23.6241 1.49514 23.2234 1.49344 22.8105C1.48895 22.2555 1.48895 22.2555 1.48438 21.6893C1.52202 21.3956 1.55966 21.1019 1.59844 20.7993C2.76066 20.0244 3.32116 20.092 4.69844 20.1193C5.07588 20.125 5.45331 20.1308 5.84219 20.1368C6.13135 20.1442 6.42051 20.1516 6.71844 20.1593C6.78712 19.7224 6.78712 19.7224 6.85719 19.2768C7.05482 18.1455 7.34889 17.0978 7.67844 15.9993C7.51674 15.8598 7.35504 15.7204 7.18844 15.5768C6.98054 15.3862 6.77264 15.1956 6.55844 14.9993C6.35054 14.8136 6.14264 14.628 5.92844 14.4368C5.43844 13.7593 5.43844 13.7593 5.21469 12.888C5.57035 11.221 6.69447 10.3308 7.89844 9.17926C8.24463 8.82997 8.24463 8.82997 8.59781 8.47363C10.579 6.53225 10.579 6.53225 12.1584 6.39926C12.8522 6.84676 12.8522 6.84676 13.4984 7.47925C14.3542 8.32431 14.3542 8.32431 15.3584 8.95926C16.127 8.71233 16.127 8.71233 16.9584 8.33926C18.4977 7.67926 18.4977 7.67926 19.1984 7.67926C19.1947 7.35957 19.191 7.03988 19.1872 6.71051C19.1843 6.29759 19.1814 5.88468 19.1784 5.45925C19.1747 5.04717 19.171 4.63508 19.1672 4.21051C19.2376 1.93351 22.2013 2.80621 23.9784 2.79926Z" fill="#C7363D"/>
<path d="M43.5169 19.5195C44.416 19.9292 45.0701 20.3538 45.7647 21.0547C45.944 21.234 46.1233 21.4134 46.308 21.5981C46.4974 21.7908 46.6868 21.9835 46.8819 22.182C47.0789 22.38 47.276 22.578 47.479 22.7819C48.1065 23.413 48.7317 24.0462 49.3569 24.6795C49.7826 25.1084 50.2084 25.5372 50.6344 25.9658C51.6769 27.0154 52.7174 28.0669 53.7569 29.1195C53.3431 30.0295 52.9087 30.6872 52.2017 31.3917C52.015 31.5792 51.8283 31.7668 51.636 31.96C51.4319 32.1619 51.2277 32.3637 51.0173 32.5717C50.8019 32.7873 50.5864 33.0028 50.3645 33.2249C49.6526 33.9363 48.9385 34.6454 48.2244 35.3545C47.7301 35.8476 47.236 36.3408 46.742 36.8342C45.4419 38.1318 44.1399 39.4275 42.8375 40.7229C41.5086 42.0452 40.1816 43.3693 38.8544 44.6933C36.2503 47.2905 33.6442 49.8856 31.0369 52.4795C30.6838 52.1798 30.3312 51.8795 29.9787 51.5791C29.7822 51.4119 29.5858 51.2447 29.3834 51.0725C28.4929 50.2936 27.6602 49.4625 26.8281 48.622C26.6537 48.4472 26.4793 48.2723 26.2996 48.0922C25.7513 47.5421 25.2041 46.9908 24.6569 46.4395C24.2817 46.0628 23.9065 45.6861 23.5312 45.3095C22.6189 44.3937 21.7076 43.4769 20.7969 42.5595C22.0808 41.0201 23.4228 39.5686 24.8442 38.1559C25.0474 37.9527 25.2505 37.7495 25.4598 37.5401C26.1239 36.8762 26.7891 36.2135 27.4544 35.5508C27.918 35.0877 28.3816 34.6246 28.8452 34.1614C30.0597 32.9481 31.2751 31.7358 32.4908 30.5236C33.7334 29.2843 34.9751 28.0441 36.2169 26.8039C38.6493 24.3749 41.0828 21.9469 43.5169 19.5195Z" fill="#C7363D"/>
<path d="M17.5796 46.1627C18.3012 46.4255 18.6641 46.7047 19.209 47.2403C19.4795 47.5032 19.4795 47.5032 19.7555 47.7713C19.9459 47.9617 20.1363 48.152 20.3324 48.3481C20.5302 48.5435 20.7281 48.7388 20.9319 48.9402C21.3486 49.3535 21.7641 49.768 22.1784 50.1838C22.815 50.8206 23.458 51.4504 24.1018 52.0799C24.5057 52.4822 24.9093 52.8849 25.3124 53.2881C25.506 53.4764 25.6997 53.6648 25.8991 53.8589C26.4303 54.3991 26.4303 54.3991 27.1962 55.3618C27.0154 56.7055 26.3626 57.4303 25.4049 58.3468C23.8423 59.4343 21.9872 59.7442 20.1562 60.1618C19.7886 60.2575 19.4211 60.3532 19.0424 60.4518C17.0247 60.9628 15.1974 61.3232 13.1162 61.1218C12.4234 60.6224 12.1916 60.281 11.9474 59.4607C11.739 57.7764 12.2407 56.1362 12.6108 54.4978C12.7544 53.8499 12.8828 53.2003 13.0112 52.5493C13.556 50.0054 14.338 48.311 16.2476 46.509C16.9562 46.0818 16.9562 46.0818 17.5796 46.1627Z" fill="#C7363D"/>
<path d="M54.7194 10.8792C55.4087 11.4026 55.9815 11.8943 56.5869 12.5005C56.8385 12.7464 56.8385 12.7464 57.0952 12.9973C57.4473 13.3441 57.7974 13.6931 58.1455 14.044C58.6774 14.5773 59.2195 15.0985 59.7631 15.6199C60.105 15.9594 60.4463 16.2996 60.7869 16.6405C60.9488 16.7943 61.1108 16.948 61.2777 17.1065C62.1322 17.9898 62.511 18.6707 62.5658 19.8779C62.3931 21.166 62.2746 21.5557 61.3494 22.4192C61.0245 22.7317 61.0245 22.7317 60.6931 23.0505C60.4642 23.258 60.2352 23.4655 59.9994 23.6792C59.7704 23.8966 59.5415 24.114 59.3056 24.338C58.7422 24.8713 58.1738 25.3978 57.5994 25.9192C56.7003 25.5096 56.0461 25.085 55.3516 24.3841C55.1723 24.2047 54.993 24.0254 54.8083 23.8406C54.6189 23.648 54.4295 23.4553 54.2344 23.2567C54.0373 23.0588 53.8402 22.8608 53.6372 22.6568C53.0097 22.0258 52.3845 21.3926 51.7594 20.7592C51.3337 20.3303 50.9079 19.9016 50.4819 19.473C49.4393 18.4234 48.3988 17.3719 47.3594 16.3192C47.7789 15.3921 48.228 14.7311 48.9494 14.0155C49.1321 13.8334 49.3148 13.6513 49.5031 13.4636C49.6933 13.2774 49.8835 13.0911 50.0794 12.8992C50.2695 12.7093 50.4597 12.5193 50.6556 12.3236C52.6752 10.3245 52.6752 10.3245 54.7194 10.8792Z" fill="#C7363D"/>
</svg>
