<svg width="65" height="64" viewBox="0 0 65 64" fill="none" xmlns="http://www.w3.org/2000/svg">
<path d="M31.9395 0.000733634C32.0707 0.000491535 32.202 0.000249435 32.3372 0C36.613 0.000892781 36.613 0.000892798 38.3787 0.489637C38.5676 0.540547 38.7565 0.591457 38.9511 0.64391C39.14 0.695312 39.3289 0.746714 39.5235 0.799674C39.905 0.891564 40.2865 0.982986 40.6682 1.07394C42.8528 1.62856 44.7878 2.43163 46.7799 3.46778C47.4105 3.79339 48.0462 4.10848 48.6815 4.42472C48.6815 4.55064 48.6815 4.67656 48.6815 4.8063C48.9279 4.87381 48.9279 4.87381 49.1793 4.94269C49.8927 5.21306 50.4302 5.5868 51.0187 6.05837C51.1266 6.14336 51.2346 6.22835 51.3458 6.31591C53.102 7.71276 54.8109 9.2409 56.3132 10.9116C56.3132 11.0376 56.3132 11.1635 56.3132 11.2932C56.4391 11.2932 56.565 11.2932 56.6947 11.2932C56.8207 11.4821 56.9466 11.671 57.0763 11.8656C58.4795 11.7179 59.7433 11.1181 60.9875 10.4824C61.6553 10.1485 61.6553 10.1485 62.0369 10.1485C62.0369 10.0225 62.0369 9.89662 62.0369 9.76688C63.043 9.15203 63.043 9.15203 63.3724 9.00372C63.4984 9.06668 63.6243 9.12964 63.754 9.19451C62.5178 11.1553 60.4821 13.5906 58.1659 14.2863C58.0582 14.3059 57.9505 14.3256 57.8395 14.3459C57.8395 14.4718 57.8395 14.5977 57.8395 14.7275C52.061 17.896 52.061 17.896 49.3943 19.0167C47.6409 19.7625 45.9598 20.6829 44.3179 21.6474C43.7209 21.9776 43.7209 21.9776 43.3393 21.9776C43.3393 22.1035 43.3393 22.2294 43.3393 22.3591C43.0286 22.5504 42.7084 22.7261 42.3854 22.8957C40.1453 24.1724 38.2348 25.8913 36.4112 27.7013C36.2314 27.8795 36.2314 27.8795 36.048 28.0613C35.448 28.671 34.997 29.2491 34.5629 29.9908C34.437 29.9908 34.3111 29.9908 34.1813 29.9908C34.142 30.1403 34.1026 30.2899 34.0621 30.4439C33.8365 31.0387 33.598 31.4843 33.2631 32.018C30.2891 36.9095 30.5082 42.6449 31.7946 48.0361C32.1053 49.282 32.4574 50.5171 32.8458 51.7411C33.1533 50.894 33.3252 50.0783 33.4659 49.1892C34.4285 43.7164 37.9044 37.7304 42.1946 34.1882C42.3205 34.1882 42.4464 34.1882 42.5762 34.1882C42.6145 34.081 42.6529 33.9738 42.6924 33.8633C43.06 33.2561 43.5766 32.915 44.1502 32.5188C44.2679 32.4363 44.3856 32.3538 44.5068 32.2687C46.0437 31.2084 47.647 30.1507 49.4447 29.6092C48.8679 30.2303 48.2609 30.6948 47.5367 31.1356C47.4108 31.1356 47.2849 31.1356 47.1552 31.1356C47.1552 31.2615 47.1552 31.3874 47.1552 31.5171C46.8131 31.813 46.8131 31.813 46.3562 32.1491C45.8282 32.546 45.3324 32.9337 44.8776 33.4131C44.7477 33.543 44.6179 33.6728 44.4841 33.8066C44.3582 33.8066 44.2322 33.8066 44.1025 33.8066C44.0317 33.9697 44.0317 33.9697 43.9594 34.136C43.6831 34.6386 43.354 34.9899 42.9577 35.4045C41.2561 37.2826 40.0072 39.2248 38.8676 41.486C38.7707 41.6779 38.6737 41.8697 38.5738 42.0674C38.0662 43.1023 37.6513 44.114 37.3498 45.2273C37.2396 45.616 37.1039 45.9789 36.9478 46.3512C36.0741 48.6136 35.8587 51.0574 35.8984 53.4582C35.9904 53.3342 36.0824 53.2103 36.1772 53.0826C36.2977 52.9232 36.4182 52.7638 36.5424 52.5996C36.6619 52.4402 36.7814 52.2809 36.9046 52.1167C37.0133 51.9927 37.122 51.8688 37.234 51.7411C37.3599 51.7411 37.4858 51.7411 37.6156 51.7411C37.6156 51.6151 37.6156 51.4892 37.6156 51.3595C40.6984 48.5978 44.6826 47.0439 48.5682 45.7997C49.2274 45.5813 49.8677 45.3254 50.5097 45.0611C50.8134 44.9369 51.119 44.8171 51.4264 44.7019C53.5328 43.9048 55.3575 42.8686 57.0487 41.3854C57.4579 41.0567 57.4579 41.0567 57.8395 41.0567C57.8395 40.9308 57.8395 40.8049 57.8395 40.6751C57.9654 40.6751 58.0913 40.6751 58.2211 40.6751C58.2211 40.5492 58.2211 40.4233 58.2211 40.2936C58.347 40.2936 58.4729 40.2936 58.6027 40.2936C58.6027 40.1676 58.6027 40.0417 58.6027 39.912C58.7286 39.912 58.8545 39.912 58.9842 39.912C59.0354 39.8018 59.0865 39.6916 59.1393 39.5781C59.4436 39.0015 59.8359 38.5166 60.2363 38.0041C60.5014 37.6353 60.7012 37.2705 60.8922 36.8593C61.0181 36.8593 61.144 36.8593 61.2737 36.8593C61.3387 36.635 61.3387 36.635 61.4049 36.4062C61.605 35.8535 61.8163 35.413 62.0965 34.9037C62.9839 33.1763 63.4734 31.1435 63.754 29.2276C63.88 29.2276 64.0059 29.2276 64.1356 29.2276C64.2784 34.6925 63.7383 39.9691 61.3907 44.9665C61.0585 45.6888 60.7822 46.4152 60.5106 47.1621C60.3846 47.1621 60.2587 47.1621 60.129 47.1621C60.0031 47.5398 59.8771 47.9176 59.7474 48.3068C59.6215 48.3068 59.4956 48.3068 59.3658 48.3068C59.3476 48.4113 59.3294 48.5159 59.3107 48.6235C58.0956 52.6226 53.2533 56.3149 50.017 58.6096C49.8626 58.7229 49.7081 58.8363 49.549 58.9531C47.6861 60.2721 45.4832 61.2781 43.3393 62.0438C43.221 62.0876 43.1026 62.1313 42.9807 62.1764C40.9627 62.9175 38.984 63.4275 36.852 63.7102C36.4972 63.7574 36.1433 63.8122 35.7896 63.8675C34.5451 64.019 33.2868 63.9982 32.0349 63.9994C31.8317 63.9997 31.8317 63.9997 31.6244 64C26.0999 63.9947 21.1456 62.5764 16.3192 59.9108C15.7018 59.5544 15.7018 59.5544 15.1022 59.3727C15.1022 59.2468 15.1022 59.1209 15.1022 58.9911C14.9964 58.9734 14.8906 58.9557 14.7817 58.9375C13.2567 58.4651 11.915 57.0188 10.7691 55.9534C10.3276 55.5416 10.3276 55.5416 9.80023 55.1485C9.59142 54.9729 9.59142 54.9729 9.3784 54.7937C9.3784 54.6678 9.3784 54.5419 9.3784 54.4121C9.25248 54.4121 9.12656 54.4121 8.99682 54.4121C8.99682 54.2862 8.99682 54.1603 8.99682 54.0306C8.8709 54.0306 8.74497 54.0306 8.61524 54.0306C8.61524 53.9046 8.61524 53.7787 8.61524 53.649C8.48931 53.649 8.36339 53.649 8.23365 53.649C7.9149 53.278 7.6194 52.9073 7.32739 52.5161C7.19998 52.3476 7.19998 52.3476 7.06999 52.1757C5.18098 49.6587 5.18098 49.6587 5.18098 49.07C5.05506 49.07 4.92914 49.07 4.7994 49.07C3.74336 47.1368 2.74618 45.2188 1.96734 43.1562C1.77144 42.6117 1.77144 42.6117 1.55972 42.2344C0.415806 39.7971 0.0429157 36.4838 0.0296097 33.8066C0.0224684 33.4414 0.0152578 33.0763 0.00799655 32.7111C-0.0228957 30.6168 0.0206274 28.6181 0.411193 26.5566C0.446117 26.3239 0.481041 26.0912 0.517023 25.8515C1.4105 20.3031 4.12536 14.861 7.99516 10.7916C8.36483 10.4021 8.7048 10.0033 9.04452 9.58802C10.971 7.39329 13.4202 5.78736 15.8653 4.23392C16.0684 4.10291 16.0684 4.10291 16.2756 3.96926C16.9337 3.54913 17.5621 3.16973 18.2979 2.89838C18.7999 2.7094 19.294 2.51934 19.7825 2.29769C23.6747 0.541746 27.7161 0.00829025 31.9395 0.000733634Z" fill="#C7363D"/>
<path d="M21.5898 22.9315C21.7649 22.9888 21.9401 23.0461 22.1205 23.1052C23.9392 23.7699 25.9018 24.8338 27.3136 26.175C27.3136 26.3009 27.3136 26.4268 27.3136 26.5566C27.4395 26.5566 27.5654 26.5566 27.6952 26.5566C27.6952 26.6825 27.6952 26.8084 27.6952 26.9381C27.8211 26.9381 27.947 26.9381 28.0768 26.9381C28.0768 27.0641 28.0768 27.19 28.0768 27.3197C28.2027 27.3197 28.3286 27.3197 28.4583 27.3197C28.4583 27.4456 28.4583 27.5716 28.4583 27.7013C28.5843 27.7013 28.7102 27.7013 28.8399 27.7013C28.8399 27.8272 28.8399 27.9532 28.8399 28.0829C28.9658 28.0829 29.0918 28.0829 29.2215 28.0829C29.9847 28.9134 29.9847 28.9134 29.9847 29.6092C30.1106 29.6092 30.2365 29.6092 30.3663 29.6092C30.3663 29.7351 30.3663 29.8611 30.3663 29.9908C30.4922 29.9908 30.6181 29.9908 30.7478 29.9908C31.1294 30.5632 31.1294 30.5632 31.1056 30.9805C30.9386 31.5171 30.9386 31.5171 30.6047 32.1491C30.2093 32.9126 29.9344 33.7046 29.6746 34.5221C29.6353 34.6425 29.5961 34.7628 29.5556 34.8868C28.8862 37.0509 28.7708 39.2387 28.7207 41.486C28.7134 41.7605 28.7059 42.035 28.6983 42.3095C28.6803 42.9731 28.6641 43.6366 28.6491 44.3002C28.0825 43.9854 27.5158 43.6706 26.932 43.3462C26.932 43.2203 26.932 43.0944 26.932 42.9646C26.7997 42.9255 26.6674 42.8864 26.531 42.8461C25.7964 42.4966 25.3234 42.0058 24.7617 41.4264C24.5982 41.2604 24.5982 41.2604 24.4314 41.0911C23.6993 40.3382 23.0258 39.5592 22.4044 38.7113C22.1564 38.3613 22.1564 38.3613 21.7806 38.0041C21.9161 38.2156 22.0517 38.4271 22.1913 38.645C22.3685 38.9242 22.5456 39.2034 22.7227 39.4827C22.8121 39.6219 22.9015 39.7611 22.9936 39.9045C23.1218 40.1074 23.1218 40.1074 23.2526 40.3144C23.371 40.5003 23.371 40.5003 23.4917 40.6899C23.6885 41.0567 23.6885 41.0567 23.7881 41.4728C23.8182 41.5873 23.8483 41.7019 23.8793 41.8199C24.1321 41.9503 24.3866 42.0774 24.6425 42.2015C24.881 42.6069 24.881 42.6069 25.0241 42.9646C25.15 42.9646 25.2759 42.9646 25.4057 42.9646C25.6544 43.2738 25.9025 43.5835 26.1487 43.8947C26.5484 44.3325 26.5484 44.3325 27.137 44.646C28.6452 45.554 29.1675 46.304 29.6027 48.036C29.783 48.8707 29.9474 49.7064 30.0881 50.5487C30.1328 50.9703 30.1328 50.9703 30.3663 51.1687C30.374 51.4866 30.3744 51.8048 30.3663 52.1226C28.1622 52.268 26.3277 51.671 24.2609 50.9779C24.2609 50.852 24.2609 50.726 24.2609 50.5963C24.135 50.5845 24.0091 50.5727 23.8793 50.5605C21.6141 49.947 19.3806 47.6239 17.9648 45.8265C17.8494 45.6829 17.7341 45.5393 17.6153 45.3913C15.8661 43.1818 15.8661 43.1818 15.8661 42.5831C15.7402 42.5831 15.6142 42.5831 15.4845 42.5831C14.7213 41.3191 14.7213 41.3191 14.7213 40.6751C14.5954 40.6751 14.4695 40.6751 14.3398 40.6751C14.2917 40.5777 14.2436 40.4803 14.1941 40.3799C13.6909 39.3609 13.1861 38.3426 12.6803 37.3249C12.4921 36.9455 12.3043 36.566 12.1169 36.1863C11.8466 35.6387 11.5748 35.0919 11.3027 34.5452C11.22 34.3768 11.1373 34.2084 11.0521 34.0349C10.677 33.2847 10.2971 32.5859 9.79555 31.9122C9.37917 31.3263 9.37917 31.3263 9.37917 30.754C9.25324 30.754 9.12732 30.754 8.99758 30.754C8.7909 30.4477 8.59873 30.1315 8.41328 29.8119C7.424 28.2139 6.17224 27.015 4.60938 25.9842C5.29769 25.2306 5.99122 24.7305 6.9108 24.279C7.04143 24.2144 7.17205 24.1498 7.30664 24.0833C8.37447 23.577 9.46558 23.1914 10.5955 22.848C10.7494 22.801 10.9034 22.7539 11.0621 22.7054C14.4329 21.7383 18.2743 21.8327 21.5898 22.9315Z" fill="#FDFEFB"/>
</svg>
