<svg width="66" height="64" viewBox="0 0 66 64" fill="none" xmlns="http://www.w3.org/2000/svg">
<path d="M6.64986 -0.055416C7.07835 -0.0585861 7.07836 -0.0585861 7.51551 -0.0618201C8.46275 -0.068168 9.40997 -0.0719188 10.3572 -0.0751239C10.8436 -0.07709 10.8436 -0.07709 11.3399 -0.0790958C13.0584 -0.0858076 14.7769 -0.0904047 16.4955 -0.0934185C18.2635 -0.0969649 20.0314 -0.108013 21.7994 -0.12081C23.1643 -0.129257 24.5293 -0.131915 25.8943 -0.133067C26.5455 -0.134625 27.1967 -0.138342 27.8478 -0.144335C32.5363 -0.184785 36.7809 0.0143211 40.5193 3.21759C47.404 10.2256 45.4318 25.323 45.3876 34.3056C45.3809 35.8087 45.378 37.3118 45.3748 38.8149C45.368 41.7432 45.3571 44.6713 45.3434 47.5995C44.3085 47.1444 43.6226 46.599 42.8299 45.7971C42.5936 45.5598 42.3574 45.3224 42.1139 45.0779C41.8613 44.8209 41.6087 44.564 41.3484 44.2992C41.0851 44.0342 40.8218 43.7692 40.5504 43.4962C39.7077 42.6477 38.8671 41.7971 38.0268 40.9462C37.1909 40.1013 36.3544 39.2569 35.517 38.4135C34.9963 37.8889 34.4765 37.3635 33.9577 36.837C32.6286 35.4964 31.2753 34.2111 29.8384 32.9862C28.8493 32.1228 27.9328 31.1876 27.0117 30.2528C26.6676 29.9049 26.3234 29.5571 25.9791 29.2093C25.6831 28.9103 25.3871 28.6112 25.0821 28.303C24.6796 30.8798 24.2556 33.8286 25.5254 36.2096C26.9568 38.1455 28.7571 39.7155 30.5494 41.308C31.0716 41.7973 31.5921 42.2883 32.111 42.781C33.9135 44.48 35.7542 46.1307 37.6292 47.7492C38.9958 48.9422 40.2769 50.2108 41.5545 51.4977C41.9131 51.857 41.9131 51.857 42.2789 52.2236C43.0332 52.9796 43.7863 53.7368 44.5394 54.494C45.0544 55.0106 45.5695 55.5271 46.0846 56.0436C47.3392 57.3017 48.5929 58.5608 49.8459 59.8206C50.151 55.8736 50.2151 51.9512 50.2102 47.994C50.2105 47.358 50.2108 46.722 50.2112 46.086C50.2116 44.7589 50.211 43.4318 50.2095 42.1047C50.2076 40.4297 50.2087 38.7546 50.2106 37.0796C51.4705 18.6959 51.4705 18.6959 45.9866 1.93116C45.1236 1.15342 45.1236 1.15342 44.3786 0.644725C44.3786 0.432464 44.3786 0.220203 44.3786 0.00150922C45.9849 -0.00656158 47.5912 -0.0123337 49.1976 -0.0161572C49.7418 -0.0177546 50.286 -0.0199337 50.8301 -0.0227527C61.5834 -0.0769818 61.5834 -0.0769819 63.6751 1.93116C65.3544 4.36456 65.1412 6.96534 65.1229 9.80875C65.1241 10.3473 65.1258 10.8858 65.1281 11.4244C65.1326 12.8816 65.129 14.3386 65.1237 15.7958C65.1192 17.3233 65.1213 18.8507 65.1225 20.3781C65.1233 22.9423 65.119 25.5066 65.1115 28.0708C65.103 31.0329 65.1024 33.9949 65.1062 36.957C65.1097 39.8103 65.1077 42.6636 65.1031 45.5168C65.1013 46.7295 65.1013 47.9421 65.1028 49.1548C65.1044 50.5832 65.1011 52.0115 65.0942 53.4399C65.0924 53.9632 65.0922 54.4866 65.0938 55.01C65.0957 55.726 65.0917 56.4418 65.0862 57.1578C65.085 57.758 65.085 57.758 65.0838 58.3703C64.8909 60.1504 64.3232 61.6811 62.8911 62.8357C62.7058 62.9907 62.5205 63.1458 62.3296 63.3055C60.9425 64.1945 59.3594 64.0491 57.766 64.0482C57.3594 64.0498 57.3594 64.0498 56.9446 64.0515C56.0482 64.0546 55.1519 64.0552 54.2555 64.0555C53.6305 64.0566 53.0055 64.0576 52.3805 64.0588C51.0693 64.0607 49.7581 64.0613 48.4469 64.0611C46.773 64.0611 45.0991 64.0655 43.4251 64.071C42.1333 64.0746 40.8415 64.0752 39.5496 64.0751C38.9329 64.0754 38.3162 64.0768 37.6995 64.0793C32.8983 64.097 28.2963 64.1091 24.3937 60.8545C16.9963 53.023 19.24 36.5211 19.2711 26.5934C19.2744 25.4028 19.2758 24.2122 19.2774 23.0216C19.2808 20.7084 19.2863 18.3951 19.2931 16.0819C20.2089 16.4977 20.8657 16.9328 21.5705 17.6481C21.7552 17.834 21.94 18.0198 22.1304 18.2113C22.3267 18.4119 22.523 18.6126 22.7253 18.8193C23.0347 19.1312 23.0347 19.1312 23.3503 19.4494C24.0095 20.1143 24.6665 20.7814 25.3233 21.4487C25.9757 22.1101 26.6287 22.771 27.2826 23.4309C27.6887 23.841 28.094 24.2519 28.4983 24.6638C29.6864 25.8651 30.9186 26.9904 32.1972 28.0946C33.0335 28.8291 33.8148 29.6027 34.5997 30.3922C34.7531 30.5461 34.9065 30.6999 35.0645 30.8585C35.5435 31.3392 36.0214 31.8211 36.4992 32.303C36.8283 32.6337 37.1574 32.9643 37.4866 33.2948C38.284 34.0957 39.0803 34.8976 39.8761 35.7C40.4805 32.9705 40.7787 30.1109 39.2762 27.6368C37.4336 25.3139 35.2604 23.3126 33.0744 21.3184C32.1782 20.493 31.3032 19.6457 30.4257 18.8005C27.4259 15.803 27.4259 15.803 24.1173 13.1874C24.1173 12.9752 24.1173 12.7629 24.1173 12.5442C23.9424 12.4742 23.7676 12.4042 23.5874 12.3321C22.5763 11.756 21.8244 10.9739 21.0168 10.1497C20.8473 9.97934 20.6778 9.80893 20.5031 9.63335C19.9643 9.0909 19.4277 8.54625 18.8911 8.00151C18.5253 7.63243 18.1593 7.2635 17.7931 6.89472C16.8978 5.9923 16.0045 5.0879 15.1122 4.18241C14.7737 6.12139 14.743 8.01054 14.7439 9.97607C14.7428 10.3263 14.7418 10.6766 14.7406 11.0374C14.7376 12.1946 14.737 13.3518 14.7366 14.509C14.7356 15.3214 14.7345 16.1339 14.7334 16.9463C14.7314 18.6527 14.7308 20.3591 14.731 22.0656C14.7312 23.8003 14.729 25.535 14.7244 27.2697C14.719 29.3785 14.7169 31.4872 14.7171 33.596C14.7167 34.3913 14.7153 35.1866 14.7128 35.9819C14.0872 50.1143 14.0872 50.1143 19.4263 62.5555C19.919 63.0667 19.919 63.0667 20.5796 63.3583C20.5796 63.5706 20.5796 63.7828 20.5796 64.0015C18.7724 64.0095 16.9652 64.0153 15.1579 64.0192C14.5448 64.0208 13.9316 64.023 13.3184 64.0258C3.46716 64.0697 3.46716 64.0697 1.60471 62.3935C0.161846 60.7946 -0.0435376 59.7162 -0.0485004 57.5931C-0.0494559 57.3651 -0.0504112 57.1372 -0.0513957 56.9023C-0.0541902 56.1364 -0.0546749 55.3706 -0.0551547 54.6048C-0.0566432 54.0564 -0.0582591 53.5081 -0.0599934 52.9598C-0.0642153 51.4686 -0.0662874 49.9775 -0.0677157 48.4864C-0.0686581 47.555 -0.0699779 46.6236 -0.0714152 45.6922C-0.0758135 42.7784 -0.0789225 39.8647 -0.0801638 36.951C-0.081605 33.5866 -0.0872493 30.2223 -0.096566 26.8579C-0.103516 24.258 -0.106762 21.6581 -0.107192 19.0582C-0.107529 17.505 -0.109432 15.952 -0.115174 14.3989C-0.120471 12.9378 -0.121169 11.4767 -0.118345 10.0156C-0.118098 9.47966 -0.119497 8.9437 -0.122674 8.40776C-0.12676 7.67536 -0.124877 6.94321 -0.121522 6.21081C-0.121993 5.80118 -0.122465 5.39154 -0.122951 4.96949C0.0304603 3.54759 0.475765 2.46369 1.4439 1.40226C3.19692 0.0372831 4.49309 -0.0485119 6.64986 -0.055416Z" fill="#C7363D"/>
</svg>
