<svg width="64" height="64" viewBox="0 0 64 64" fill="none" xmlns="http://www.w3.org/2000/svg">
<g clip-path="url(#clip0_692_382)">
<path d="M20.7519 22C21.6307 22.4069 22.4002 22.9322 23.205 23.4688C26.2588 25.4035 29.7179 25.9842 33.2519 25.2188C35.4863 24.5971 37.5594 23.5985 39.2519 22C41.7436 22.7835 43.6551 25.4485 44.8689 27.6597C45.6623 29.2097 46.1417 30.8027 46.5019 32.5C46.5628 32.7568 46.6237 33.0137 46.6864 33.2783C46.8606 34.2607 46.9748 34.9218 46.3983 35.7705C45.7282 36.3619 45.1576 36.7678 44.2401 36.7275C43.8764 36.6339 43.5155 36.5294 43.1571 36.417C41.1518 35.906 38.8286 35.9851 37.0019 37C36.8146 37.1034 36.6274 37.2069 36.4345 37.3135C34.4784 38.504 33.062 40.2332 32.3622 42.4404C32.2164 43.1796 32.1995 43.8872 32.1894 44.6406C32.1829 44.9245 32.1765 45.2085 32.1698 45.501C32.1993 46.354 32.4009 47.1173 32.632 47.9374C32.7008 48.1837 32.7697 48.4299 32.8407 48.6836C32.8939 48.8705 32.9471 49.0574 33.0019 49.25C30.8807 49.2674 28.7597 49.2807 26.6385 49.2889C25.6535 49.2928 24.6685 49.2981 23.6834 49.3066C22.7319 49.3148 21.7804 49.3192 20.8289 49.3212C20.4668 49.3225 20.1047 49.3252 19.7426 49.3293C16.2016 49.3674 16.2016 49.3674 14.7519 48.5C13.5046 47.2528 13.7119 45.5079 13.7099 43.8623C13.709 43.6294 13.7082 43.3965 13.7073 43.1565C13.7061 42.6629 13.7055 42.1693 13.7055 41.6757C13.705 40.934 13.7005 40.1924 13.6957 39.4507C13.6763 33.1692 14.3743 28.1617 18.955 23.4844C19.541 22.9108 20.0669 22.4566 20.7519 22Z" fill="#C7363D"/>
<path d="M61.3572 28.4064C62.5797 29.1231 63.469 30.1814 63.9978 31.5001C64.1637 33.1669 64.2661 34.8456 63.2478 36.2501C61.9355 37.7351 60.89 38.3059 58.9461 38.4962C58.2478 38.5001 58.2478 38.5001 57.3074 38.2823C56.377 38.1581 55.9244 38.3609 55.1541 38.8859C54.7644 39.184 54.3791 39.4881 53.9978 39.797C53.7941 39.9548 53.5903 40.1126 53.3803 40.2751C52.959 40.6015 52.5393 40.93 52.1212 41.2605C51.1612 42.0146 50.1805 42.7404 49.201 43.4689C48.6328 43.8953 48.0653 44.3227 47.4978 44.7501C49.041 46.0335 50.6372 47.2313 52.2635 48.4064C52.4492 48.5408 52.635 48.6753 52.8263 48.8138C53.3811 49.2127 53.9391 49.6068 54.4978 50.0001C54.7005 50.146 54.9032 50.2919 55.112 50.4423C55.3112 50.5819 55.5104 50.7215 55.7156 50.8654C55.8956 50.9931 56.0755 51.1208 56.261 51.2524C56.4216 51.3342 56.5823 51.4159 56.7478 51.5001C56.9953 51.4176 57.2428 51.3351 57.4978 51.2501C59.2825 51.0742 60.7765 51.16 62.2478 52.2501C63.2191 53.1768 63.9387 54.1556 64.073 55.506C64.0799 57.4699 63.9888 58.6616 62.6541 60.172C61.4672 61.2176 60.5204 61.6729 58.9666 61.8282C57.3217 61.6956 55.9862 61.1969 54.7635 60.0782C53.8631 58.6321 53.3654 57.2224 53.4978 55.5001C53.2972 55.4092 53.2972 55.4092 53.0926 55.3165C52.3432 54.9179 51.6682 54.4344 50.9822 53.9376C50.8346 53.8315 50.6869 53.7253 50.5348 53.616C48.4263 52.0951 46.3375 50.5468 44.2478 49.0001C44.0257 49.106 44.0257 49.106 43.799 49.2139C42.0468 50.0254 40.722 50.3874 38.8279 49.7882C37.2835 49.1122 36.4382 48.285 35.7478 46.7501C35.2745 45.3301 35.2675 43.8149 35.8885 42.4376C36.5972 41.1961 37.6109 40.3789 38.826 39.6564C40.9121 39.1712 42.3608 39.5886 44.2478 40.5001C44.3695 40.4098 44.4911 40.3195 44.6164 40.2264C44.9845 39.9534 45.3529 39.6807 45.7215 39.4083C46.149 39.0918 46.5757 38.7743 47.0017 38.4558C48.0583 37.6707 49.1166 36.9118 50.2332 36.214C52.2702 35.0132 52.2702 35.0132 53.617 33.1613C53.7888 32.3216 53.7888 32.3216 53.8699 31.4982C54.1293 29.9815 55.2385 29.1292 56.4197 28.2501C58.037 27.7619 59.7956 27.6982 61.3572 28.4064Z" fill="#C7363D"/>
<path d="M36.1684 4.05007C37.7852 5.30209 39.0039 6.84355 39.7485 8.74929C39.8375 8.97681 39.9264 9.20433 40.018 9.43874C40.8252 12.2775 40.2701 15.0455 38.936 17.5969C37.4705 20.0451 35.242 21.5595 32.4985 22.2493C29.5734 22.8587 26.8923 22.1281 24.3735 20.593C22.1171 19.0324 20.7783 16.6733 20.2485 13.9993C20.0265 10.8482 20.5944 8.30061 22.4985 5.74929C26.0226 1.7567 31.7583 1.18558 36.1684 4.05007Z" fill="#C7363D"/>
<path d="M5.00359 23C5.60863 23.3571 6.20435 23.7159 6.78191 24.1162C8.64354 25.3628 10.5931 25.7943 12.7536 26.25C12.6505 26.5491 12.5473 26.8481 12.4411 27.1562C12.099 28.1873 11.7796 29.2237 11.4723 30.2656C11.3892 30.547 11.306 30.8283 11.2204 31.1182C10.7733 32.9366 10.7083 34.7383 10.6745 36.6016C10.6693 36.8429 10.6641 37.0842 10.6587 37.3329C10.6425 38.0969 10.6277 38.8609 10.613 39.625C10.6022 40.1458 10.5912 40.6667 10.5802 41.1875C10.5536 42.4583 10.5283 43.7291 10.5036 45C9.32053 45.0186 8.13756 45.0322 6.95439 45.0412C6.55236 45.045 6.15034 45.0501 5.74834 45.0566C5.16868 45.0657 4.58916 45.0699 4.00945 45.0732C3.74217 45.079 3.74217 45.079 3.46949 45.085C2.29408 45.0854 1.49593 44.8814 0.503588 44.25C-0.0255388 43.4563 -0.0606302 43.252 -0.069044 42.3419C-0.0722339 42.1072 -0.0754238 41.8725 -0.0787104 41.6307C-0.0792668 41.3768 -0.0798232 41.1229 -0.0803965 40.8613C-0.0820607 40.5982 -0.0837249 40.3351 -0.0854396 40.064C-0.0879738 39.5054 -0.0891437 38.9468 -0.0890635 38.3882C-0.0901469 37.5432 -0.0991965 36.6985 -0.108717 35.8535C-0.133685 31.1198 0.539508 27.253 4.00359 23.75C4.59734 23.2656 4.59734 23.2656 5.00359 23Z" fill="#C7363D"/>
<path d="M17.7533 7.74879C17.7183 7.88421 17.6833 8.01962 17.6472 8.15913C17.3068 9.56261 17.1569 10.8842 17.1596 12.3269C17.1596 12.5329 17.1596 12.7388 17.1597 12.951C17.1954 14.8709 17.6085 16.5726 18.5365 18.2654C18.7533 18.7488 18.7533 18.7488 18.7533 19.7488C18.2328 20.2488 18.2328 20.2488 17.5502 20.7488C16.6135 21.4371 16.6135 21.4371 15.8441 22.2957C15.5033 22.7488 15.5033 22.7488 14.7533 22.9988C12.3587 23.2242 10.2902 22.9227 8.31093 21.5017C7.02185 20.4089 6.04439 19.3627 5.50331 17.7488C5.44498 17.5773 5.38665 17.4059 5.32655 17.2293C4.67826 14.9038 4.98133 12.6349 6.16054 10.5437C7.42979 8.52593 9.1453 7.19517 11.4877 6.63942C13.7962 6.28843 15.6976 6.69169 17.7533 7.74879Z" fill="#C7363D"/>
</g>
<defs>
<clipPath id="clip0_692_382">
<rect width="64" height="64" fill="white"/>
</clipPath>
</defs>
</svg>
