<svg width="189" height="40" viewBox="0 0 189 40" fill="none" xmlns="http://www.w3.org/2000/svg">
<path d="M10 1H1V8" stroke="#EEEEEE"/>
<path d="M10 39H1V32" stroke="#EEEEEE"/>
<path d="M26 1H35V8" stroke="#EEEEEE"/>
<path d="M26 39H35V32" stroke="#EEEEEE"/>
<path d="M18.52 33.6399C16.5574 33.6399 14.7227 33.3199 13.016 32.6799C11.3094 31.9973 9.96536 31.1013 8.98403 29.9919C8.5147 29.4799 8.28003 28.8826 8.28003 28.1999C8.28003 27.4746 8.55736 26.8346 9.11203 26.2799C9.6667 25.7253 10.328 25.4479 11.096 25.4479C11.8214 25.4479 12.44 25.7039 12.952 26.2159C13.6774 26.8986 14.5947 27.4319 15.704 27.8159C16.8134 28.1999 17.9014 28.3919 18.968 28.3919C20.0774 28.3919 21.0374 28.1573 21.848 27.6879C22.6587 27.1759 23.064 26.3866 23.064 25.3199C23.064 24.4239 22.68 23.7413 21.912 23.2719C21.1867 22.7599 19.9494 22.3546 18.2 22.0559C15.0854 21.5439 12.7387 20.6906 11.16 19.4959C9.58136 18.2586 8.79203 16.5306 8.79203 14.3119C8.79203 11.9226 9.70936 10.0239 11.544 8.61594C13.3787 7.16527 15.7894 6.43994 18.776 6.43994C21.848 6.43994 24.3014 7.22927 26.136 8.80794C26.8614 9.40527 27.224 10.1093 27.224 10.9199C27.224 11.6026 26.9467 12.1999 26.392 12.7119C25.88 13.1813 25.2614 13.4159 24.536 13.4159C23.9814 13.4159 23.4694 13.2666 23 12.9679C21.3787 11.9439 19.672 11.4319 17.88 11.4319C16.8134 11.4319 15.9174 11.6453 15.192 12.0719C14.4667 12.4986 14.104 13.1386 14.104 13.9919C14.104 14.8879 14.6587 15.5919 15.768 16.1039C16.92 16.6159 18.584 17.0853 20.76 17.5119C21.9547 17.7253 23.128 18.1093 24.28 18.6639C25.4747 19.1759 26.456 19.9653 27.224 21.0319C28.0347 22.0986 28.44 23.5493 28.44 25.3839C28.44 27.8159 27.5014 29.7999 25.624 31.3359C23.7894 32.8719 21.4214 33.6399 18.52 33.6399Z" fill="#D9464F"/>
<path d="M41.5185 33.6399C39.7265 33.6399 38.0412 33.2346 36.4625 32.4239C34.9265 31.6133 33.6892 30.4399 32.7505 28.9039C31.8119 27.3679 31.3425 25.5333 31.3425 23.3999C31.3852 20.4559 32.3452 18.1306 34.2225 16.4239C36.0999 14.6746 38.5319 13.7999 41.5185 13.7999C42.6705 13.7999 43.8012 13.9279 44.9105 14.1839C46.0199 14.4399 46.9799 14.9093 47.7905 15.5919C48.4305 16.1039 48.7505 16.7653 48.7505 17.5759C48.7505 18.2586 48.4945 18.8773 47.9825 19.4319C47.5132 19.9866 46.9159 20.2639 46.1905 20.2639C45.7212 20.2639 45.2945 20.1359 44.9105 19.8799C44.2705 19.5386 43.6945 19.3039 43.1825 19.1759C42.7132 19.0479 42.1799 18.9839 41.5825 18.9839C40.1745 18.9839 39.0225 19.3893 38.1265 20.1999C37.2305 21.0106 36.7825 22.0986 36.7825 23.4639C36.7825 25.0426 37.2732 26.2799 38.2545 27.1759C39.2359 28.0293 40.3879 28.4559 41.7105 28.4559C43.2039 28.4559 44.6119 27.9013 45.9345 26.7919C46.4465 26.4079 46.9372 26.2159 47.4065 26.2159C48.0892 26.2159 48.6652 26.4933 49.1345 27.0479C49.6465 27.6026 49.9025 28.2426 49.9025 28.9679C49.9025 29.2666 49.8385 29.6079 49.7105 29.9919C49.5825 30.3333 49.3479 30.6746 49.0065 31.0159C47.8545 31.9546 46.6172 32.6159 45.2945 32.9999C44.0145 33.4266 42.7559 33.6399 41.5185 33.6399Z" fill="#D9464F"/>
<path d="M61.755 33.6399C58.8964 33.6399 56.571 32.7439 54.779 30.9519C53.0297 29.1173 52.155 26.6853 52.155 23.6559C52.155 20.6266 53.0084 18.2373 54.715 16.4879C56.4644 14.6959 58.747 13.7999 61.563 13.7999C63.5684 13.7999 65.3177 14.5039 66.811 15.9119C66.9817 15.3999 67.3017 14.9733 67.771 14.6319C68.2404 14.2906 68.795 14.1199 69.435 14.1199C70.2884 14.1199 70.971 14.3759 71.483 14.8879C72.0377 15.3573 72.315 15.9333 72.315 16.6159V31.1439C72.315 31.8693 72.0377 32.4666 71.483 32.9359C70.971 33.4053 70.2884 33.6399 69.435 33.6399C68.027 33.6399 67.1524 33.0213 66.811 31.7839C65.4457 33.0213 63.7604 33.6399 61.755 33.6399ZM62.203 28.4559C63.5684 28.4559 64.6564 28.0079 65.467 27.1119C66.2777 26.1733 66.683 25.0213 66.683 23.6559C66.683 22.2479 66.2777 21.1173 65.467 20.2639C64.6564 19.4106 63.5684 18.9839 62.203 18.9839C60.8804 18.9839 59.7924 19.4106 58.939 20.2639C58.1284 21.1173 57.723 22.2479 57.723 23.6559C57.723 25.0213 58.1284 26.1733 58.939 27.1119C59.7924 28.0079 60.8804 28.4559 62.203 28.4559Z" fill="#D9464F"/>
<path d="M93.1865 33.6399C92.3759 33.6399 91.6932 33.4053 91.1385 32.9359C90.6265 32.4666 90.3705 31.8693 90.3705 31.1439V23.3359C90.3705 21.7573 90.0079 20.6266 89.2825 19.9439C88.5999 19.2613 87.7465 18.9199 86.7225 18.9199C85.6559 18.9199 84.7599 19.2613 84.0345 19.9439C83.3519 20.6266 82.9252 21.4159 82.7545 22.3119V30.8879C82.7545 31.6133 82.4772 32.2319 81.9225 32.7439C81.4105 33.2133 80.7705 33.4479 80.0025 33.4479C79.1919 33.4479 78.5092 33.2133 77.9545 32.7439C77.3999 32.2746 77.1225 31.6773 77.1225 30.9519V16.6159C77.1225 15.9333 77.3785 15.3573 77.8905 14.8879C78.4452 14.3759 79.1492 14.1199 80.0025 14.1199C80.6852 14.1199 81.2612 14.3119 81.7305 14.6959C82.1999 15.0373 82.5199 15.4853 82.6905 16.0399C83.8425 14.5466 85.5919 13.7999 87.9385 13.7999C90.3279 13.7999 92.2692 14.5039 93.7625 15.9119C95.2559 17.3199 96.0025 19.5599 96.0025 22.6319V31.2719C96.0025 31.9546 95.7252 32.5306 95.1705 32.9999C94.6585 33.4266 93.9972 33.6399 93.1865 33.6399Z" fill="#D9464F"/>
<path d="M102.026 33.6399C101.599 33.6399 101.215 33.4906 100.874 33.1919C100.575 32.9359 100.447 32.5306 100.49 31.9759L103.37 9.19194C103.455 8.59461 103.733 8.14661 104.202 7.84794C104.714 7.54928 105.269 7.39994 105.866 7.39994C106.378 7.39994 106.847 7.52794 107.274 7.78394C107.743 7.99727 108.063 8.35994 108.234 8.87194L113.866 23.7199C114.122 24.2746 114.378 24.5519 114.634 24.5519C114.847 24.5519 115.082 24.2746 115.338 23.7199L120.906 8.87194C121.119 8.35994 121.439 7.99727 121.866 7.78394C122.293 7.52794 122.762 7.39994 123.274 7.39994C123.914 7.39994 124.469 7.54928 124.938 7.84794C125.45 8.14661 125.727 8.59461 125.77 9.19194L128.65 31.9759C128.735 32.5306 128.607 32.9359 128.266 33.1919C127.925 33.4906 127.541 33.6399 127.114 33.6399C126.773 33.6399 126.453 33.5119 126.154 33.2559C125.855 33.0426 125.663 32.7226 125.578 32.2959L123.402 12.9039C123.317 12.5626 123.189 12.3919 123.018 12.3919C122.847 12.3919 122.677 12.5413 122.506 12.8399L116.554 28.2639C116.085 29.2453 115.423 29.7359 114.57 29.7359C113.759 29.7359 113.119 29.2453 112.65 28.2639L106.634 12.8399C106.506 12.5413 106.335 12.3919 106.122 12.3919C105.951 12.3919 105.823 12.5626 105.738 12.9039L103.562 32.2959C103.519 32.7226 103.327 33.0426 102.986 33.2559C102.687 33.5119 102.367 33.6399 102.026 33.6399Z" fill="white"/>
<path d="M141.883 33.6399C139.238 33.6399 137.062 32.7439 135.355 30.9519C133.648 29.1173 132.795 26.7706 132.795 23.9119C132.795 21.1386 133.648 18.8773 135.355 17.1279C137.062 15.3359 139.238 14.4399 141.883 14.4399C144.614 14.4399 146.811 15.3999 148.475 17.3199V16.1679C148.475 15.6986 148.624 15.3573 148.923 15.1439C149.222 14.8879 149.542 14.7599 149.883 14.7599C150.267 14.7599 150.608 14.8879 150.907 15.1439C151.206 15.3573 151.355 15.6986 151.355 16.1679V32.1679C151.355 32.5946 151.206 32.9359 150.907 33.1919C150.651 33.4906 150.31 33.6399 149.883 33.6399C149.456 33.6399 149.115 33.4906 148.859 33.1919C148.603 32.9359 148.475 32.5946 148.475 32.1679V30.6319C147.707 31.5706 146.747 32.3173 145.595 32.8719C144.486 33.3839 143.248 33.6399 141.883 33.6399ZM141.883 31.0159C143.888 31.0159 145.488 30.4186 146.683 29.2239C147.878 28.0293 148.475 26.2586 148.475 23.9119C148.475 21.6506 147.878 19.9439 146.683 18.7919C145.488 17.6399 143.888 17.0639 141.883 17.0639C140.048 17.0639 138.555 17.7253 137.403 19.0479C136.294 20.3706 135.739 21.9919 135.739 23.9119C135.739 25.9173 136.294 27.6026 137.403 28.9679C138.555 30.3333 140.048 31.0159 141.883 31.0159Z" fill="white"/>
<path d="M163.666 33.6399C161.916 33.6399 160.551 33.1279 159.57 32.1039C158.588 31.0373 158.098 29.5866 158.098 27.7519V18.2799C158.098 17.8533 157.884 17.6399 157.458 17.6399H155.858C155.516 17.6399 155.218 17.5119 154.962 17.2559C154.706 16.9999 154.578 16.7013 154.578 16.3599C154.578 16.0186 154.706 15.7199 154.962 15.4639C155.218 15.2079 155.516 15.0799 155.858 15.0799H157.458C157.884 15.0799 158.098 14.8666 158.098 14.4399V8.48794C158.098 8.01861 158.247 7.67727 158.546 7.46394C158.844 7.20794 159.164 7.07994 159.506 7.07994C159.89 7.07994 160.231 7.20794 160.53 7.46394C160.828 7.67727 160.978 8.01861 160.978 8.48794V14.4399C160.978 14.8666 161.191 15.0799 161.618 15.0799H166.098C166.439 15.0799 166.738 15.2079 166.994 15.4639C167.25 15.7199 167.378 16.0186 167.378 16.3599C167.378 16.7013 167.25 16.9999 166.994 17.2559C166.738 17.5119 166.439 17.6399 166.098 17.6399H161.618C161.191 17.6399 160.978 17.8533 160.978 18.2799V27.5599C160.978 29.7786 162.002 30.8879 164.05 30.8879C164.562 30.8879 164.967 30.8239 165.266 30.6959C165.607 30.5679 165.884 30.5039 166.098 30.5039C166.482 30.5039 166.78 30.6533 166.994 30.9519C167.25 31.2506 167.378 31.5706 167.378 31.9119C167.378 32.5946 167.058 33.0213 166.418 33.1919C165.991 33.3626 165.522 33.4693 165.01 33.5119C164.54 33.5973 164.092 33.6399 163.666 33.6399Z" fill="white"/>
<path d="M180.464 33.6399C177.477 33.6399 175.088 32.7653 173.296 31.0159C171.504 29.2239 170.608 26.7706 170.608 23.6559C170.608 21.9493 170.992 20.4133 171.76 19.0479C172.528 17.6399 173.594 16.5306 174.96 15.7199C176.368 14.8666 178.01 14.4399 179.888 14.4399C181.85 14.4399 183.472 14.8666 184.752 15.7199C186.032 16.5306 186.97 17.5546 187.568 18.7919C188.208 19.9866 188.528 21.1813 188.528 22.3759C188.528 23.1013 188.357 23.6986 188.016 24.1679C187.717 24.6373 187.269 24.8719 186.672 24.8719H174.384C174.128 24.8719 173.936 24.8933 173.808 24.9359C173.722 24.9786 173.68 25.1279 173.68 25.3839C173.68 26.1093 173.914 26.8986 174.384 27.7519C174.853 28.6053 175.514 29.3519 176.368 29.9919C177.264 30.5893 178.288 30.9306 179.44 31.0159C180.677 31.1013 181.893 30.9733 183.088 30.6319C184.282 30.2906 185.349 29.7573 186.288 29.0319C186.501 28.8613 186.736 28.7759 186.992 28.7759C187.29 28.7759 187.568 28.9039 187.824 29.1599C188.122 29.4159 188.272 29.7359 188.272 30.1199C188.272 30.5039 188.08 30.8879 187.696 31.2719C186.672 32.0826 185.52 32.6799 184.24 33.0639C182.96 33.4479 181.701 33.6399 180.464 33.6399ZM184.496 22.6319C184.837 22.6319 185.093 22.5039 185.264 22.2479C185.434 21.9493 185.477 21.5866 185.392 21.1599C185.264 20.0506 184.688 19.0693 183.664 18.2159C182.64 17.3199 181.381 16.8719 179.888 16.8719C178.778 16.8719 177.754 17.1493 176.816 17.7039C175.92 18.2159 175.194 18.8773 174.64 19.6879C174.085 20.4986 173.808 21.3519 173.808 22.2479C173.808 22.4613 174 22.5679 174.384 22.5679L184.496 22.6319Z" fill="white"/>
</svg>
