<svg width="189" height="40" viewBox="0 0 189 40" fill="none" xmlns="http://www.w3.org/2000/svg">
<path d="M18.9041 33.9227C16.9414 33.9227 15.1067 33.6027 13.4001 32.9627C11.6934 32.28 10.3494 31.384 9.36806 30.2747C8.89873 29.7627 8.66406 29.1653 8.66406 28.4827C8.66406 27.7573 8.9414 27.1173 9.49606 26.5627C10.0507 26.008 10.7121 25.7307 11.4801 25.7307C12.2054 25.7307 12.8241 25.9867 13.3361 26.4987C14.0614 27.1813 14.9787 27.7147 16.0881 28.0987C17.1974 28.4827 18.2854 28.6747 19.3521 28.6747C20.4614 28.6747 21.4214 28.44 22.2321 27.9707C23.0427 27.4587 23.4481 26.6693 23.4481 25.6027C23.4481 24.7067 23.0641 24.024 22.2961 23.5547C21.5707 23.0427 20.3334 22.6373 18.5841 22.3387C15.4694 21.8267 13.1227 20.9733 11.5441 19.7787C9.9654 18.5413 9.17606 16.8133 9.17606 14.5947C9.17606 12.2053 10.0934 10.3067 11.9281 8.89866C13.7627 7.44799 16.1734 6.72266 19.1601 6.72266C22.2321 6.72266 24.6854 7.51199 26.5201 9.09066C27.2454 9.68799 27.6081 10.392 27.6081 11.2027C27.6081 11.8853 27.3307 12.4827 26.7761 12.9947C26.2641 13.464 25.6454 13.6987 24.9201 13.6987C24.3654 13.6987 23.8534 13.5493 23.3841 13.2507C21.7627 12.2267 20.0561 11.7147 18.2641 11.7147C17.1974 11.7147 16.3014 11.928 15.5761 12.3547C14.8507 12.7813 14.4881 13.4213 14.4881 14.2747C14.4881 15.1707 15.0427 15.8747 16.1521 16.3867C17.3041 16.8987 18.9681 17.368 21.1441 17.7947C22.3387 18.008 23.5121 18.392 24.6641 18.9467C25.8587 19.4587 26.8401 20.248 27.6081 21.3147C28.4187 22.3813 28.8241 23.832 28.8241 25.6667C28.8241 28.0987 27.8854 30.0827 26.0081 31.6187C24.1734 33.1547 21.8054 33.9227 18.9041 33.9227Z" fill="#D9464F"/>
<path d="M41.9026 33.9227C40.1106 33.9227 38.4252 33.5173 36.8466 32.7067C35.3106 31.896 34.0732 30.7227 33.1346 29.1867C32.1959 27.6507 31.7266 25.816 31.7266 23.6827C31.7692 20.7387 32.7292 18.4133 34.6066 16.7067C36.4839 14.9573 38.9159 14.0827 41.9026 14.0827C43.0546 14.0827 44.1852 14.2107 45.2946 14.4667C46.4039 14.7227 47.3639 15.192 48.1746 15.8747C48.8146 16.3867 49.1346 17.048 49.1346 17.8587C49.1346 18.5413 48.8786 19.16 48.3666 19.7147C47.8972 20.2693 47.2999 20.5467 46.5746 20.5467C46.1052 20.5467 45.6786 20.4187 45.2946 20.1627C44.6546 19.8213 44.0786 19.5867 43.5666 19.4587C43.0972 19.3307 42.5639 19.2667 41.9666 19.2667C40.5586 19.2667 39.4066 19.672 38.5106 20.4827C37.6146 21.2933 37.1666 22.3813 37.1666 23.7467C37.1666 25.3253 37.6572 26.5627 38.6386 27.4587C39.6199 28.312 40.7719 28.7387 42.0946 28.7387C43.5879 28.7387 44.9959 28.184 46.3186 27.0747C46.8306 26.6907 47.3212 26.4987 47.7906 26.4987C48.4732 26.4987 49.0492 26.776 49.5186 27.3307C50.0306 27.8853 50.2866 28.5253 50.2866 29.2507C50.2866 29.5493 50.2226 29.8907 50.0946 30.2747C49.9666 30.616 49.7319 30.9573 49.3906 31.2987C48.2386 32.2373 47.0012 32.8987 45.6786 33.2827C44.3986 33.7093 43.1399 33.9227 41.9026 33.9227Z" fill="#D9464F"/>
<path d="M62.1391 33.9227C59.2804 33.9227 56.9551 33.0267 55.1631 31.2347C53.4137 29.4 52.5391 26.968 52.5391 23.9387C52.5391 20.9093 53.3924 18.52 55.0991 16.7707C56.8484 14.9787 59.1311 14.0827 61.9471 14.0827C63.9524 14.0827 65.7017 14.7867 67.1951 16.1947C67.3657 15.6827 67.6857 15.256 68.1551 14.9147C68.6244 14.5733 69.1791 14.4027 69.8191 14.4027C70.6724 14.4027 71.3551 14.6587 71.8671 15.1707C72.4217 15.64 72.6991 16.216 72.6991 16.8987V31.4267C72.6991 32.152 72.4217 32.7493 71.8671 33.2187C71.3551 33.688 70.6724 33.9227 69.8191 33.9227C68.4111 33.9227 67.5364 33.304 67.1951 32.0667C65.8297 33.304 64.1444 33.9227 62.1391 33.9227ZM62.5871 28.7387C63.9524 28.7387 65.0404 28.2907 65.8511 27.3947C66.6617 26.456 67.0671 25.304 67.0671 23.9387C67.0671 22.5307 66.6617 21.4 65.8511 20.5467C65.0404 19.6933 63.9524 19.2667 62.5871 19.2667C61.2644 19.2667 60.1764 19.6933 59.3231 20.5467C58.5124 21.4 58.1071 22.5307 58.1071 23.9387C58.1071 25.304 58.5124 26.456 59.3231 27.3947C60.1764 28.2907 61.2644 28.7387 62.5871 28.7387Z" fill="#D9464F"/>
<path d="M93.5706 33.9227C92.7599 33.9227 92.0772 33.688 91.5226 33.2187C91.0106 32.7493 90.7546 32.152 90.7546 31.4267V23.6187C90.7546 22.04 90.3919 20.9093 89.6666 20.2267C88.9839 19.544 88.1306 19.2027 87.1066 19.2027C86.0399 19.2027 85.1439 19.544 84.4186 20.2267C83.7359 20.9093 83.3092 21.6987 83.1386 22.5947V31.1707C83.1386 31.896 82.8612 32.5147 82.3066 33.0267C81.7946 33.496 81.1546 33.7307 80.3866 33.7307C79.5759 33.7307 78.8932 33.496 78.3386 33.0267C77.7839 32.5573 77.5066 31.96 77.5066 31.2347V16.8987C77.5066 16.216 77.7626 15.64 78.2746 15.1707C78.8292 14.6587 79.5332 14.4027 80.3866 14.4027C81.0692 14.4027 81.6452 14.5947 82.1146 14.9787C82.5839 15.32 82.9039 15.768 83.0746 16.3227C84.2266 14.8293 85.9759 14.0827 88.3226 14.0827C90.7119 14.0827 92.6532 14.7867 94.1466 16.1947C95.6399 17.6027 96.3866 19.8427 96.3866 22.9147V31.5547C96.3866 32.2373 96.1092 32.8133 95.5546 33.2827C95.0426 33.7093 94.3812 33.9227 93.5706 33.9227Z" fill="#D9464F"/>
<path d="M102.41 33.9227C101.983 33.9227 101.599 33.7733 101.258 33.4747C100.959 33.2187 100.831 32.8133 100.874 32.2587L103.754 9.47466C103.839 8.87732 104.117 8.42932 104.586 8.13066C105.098 7.83199 105.653 7.68266 106.25 7.68266C106.762 7.68266 107.231 7.81066 107.658 8.06666C108.127 8.27999 108.447 8.64266 108.618 9.15466L114.25 24.0027C114.506 24.5573 114.762 24.8347 115.018 24.8347C115.231 24.8347 115.466 24.5573 115.722 24.0027L121.29 9.15466C121.503 8.64266 121.823 8.27999 122.25 8.06666C122.677 7.81066 123.146 7.68266 123.658 7.68266C124.298 7.68266 124.853 7.83199 125.322 8.13066C125.834 8.42932 126.111 8.87732 126.154 9.47466L129.034 32.2587C129.119 32.8133 128.991 33.2187 128.65 33.4747C128.309 33.7733 127.925 33.9227 127.498 33.9227C127.157 33.9227 126.837 33.7947 126.538 33.5387C126.239 33.3253 126.047 33.0053 125.962 32.5787L123.786 13.1867C123.701 12.8453 123.573 12.6747 123.402 12.6747C123.231 12.6747 123.061 12.824 122.89 13.1227L116.938 28.5467C116.469 29.528 115.807 30.0187 114.954 30.0187C114.143 30.0187 113.503 29.528 113.034 28.5467L107.018 13.1227C106.89 12.824 106.719 12.6747 106.506 12.6747C106.335 12.6747 106.207 12.8453 106.122 13.1867L103.946 32.5787C103.903 33.0053 103.711 33.3253 103.37 33.5387C103.071 33.7947 102.751 33.9227 102.41 33.9227Z" fill="#1A1A1A"/>
<path d="M142.267 33.9227C139.622 33.9227 137.446 33.0267 135.739 31.2347C134.032 29.4 133.179 27.0533 133.179 24.1947C133.179 21.4213 134.032 19.16 135.739 17.4107C137.446 15.6187 139.622 14.7227 142.267 14.7227C144.998 14.7227 147.195 15.6827 148.859 17.6027V16.4507C148.859 15.9813 149.008 15.64 149.307 15.4267C149.606 15.1707 149.926 15.0427 150.267 15.0427C150.651 15.0427 150.992 15.1707 151.291 15.4267C151.59 15.64 151.739 15.9813 151.739 16.4507V32.4507C151.739 32.8773 151.59 33.2187 151.291 33.4747C151.035 33.7733 150.694 33.9227 150.267 33.9227C149.84 33.9227 149.499 33.7733 149.243 33.4747C148.987 33.2187 148.859 32.8773 148.859 32.4507V30.9147C148.091 31.8533 147.131 32.6 145.979 33.1547C144.87 33.6667 143.632 33.9227 142.267 33.9227ZM142.267 31.2987C144.272 31.2987 145.872 30.7013 147.067 29.5067C148.262 28.312 148.859 26.5413 148.859 24.1947C148.859 21.9333 148.262 20.2267 147.067 19.0747C145.872 17.9227 144.272 17.3467 142.267 17.3467C140.432 17.3467 138.939 18.008 137.787 19.3307C136.678 20.6533 136.123 22.2747 136.123 24.1947C136.123 26.2 136.678 27.8853 137.787 29.2507C138.939 30.616 140.432 31.2987 142.267 31.2987Z" fill="#1A1A1A"/>
<path d="M164.05 33.9227C162.3 33.9227 160.935 33.4107 159.954 32.3867C158.972 31.32 158.482 29.8693 158.482 28.0347V18.5627C158.482 18.136 158.268 17.9227 157.842 17.9227H156.242C155.9 17.9227 155.602 17.7947 155.346 17.5387C155.09 17.2827 154.962 16.984 154.962 16.6427C154.962 16.3013 155.09 16.0027 155.346 15.7467C155.602 15.4907 155.9 15.3627 156.242 15.3627H157.842C158.268 15.3627 158.482 15.1493 158.482 14.7227V8.77066C158.482 8.30132 158.631 7.95999 158.93 7.74666C159.228 7.49066 159.548 7.36266 159.89 7.36266C160.274 7.36266 160.615 7.49066 160.914 7.74666C161.212 7.95999 161.362 8.30132 161.362 8.77066V14.7227C161.362 15.1493 161.575 15.3627 162.002 15.3627H166.482C166.823 15.3627 167.122 15.4907 167.378 15.7467C167.634 16.0027 167.762 16.3013 167.762 16.6427C167.762 16.984 167.634 17.2827 167.378 17.5387C167.122 17.7947 166.823 17.9227 166.482 17.9227H162.002C161.575 17.9227 161.362 18.136 161.362 18.5627V27.8427C161.362 30.0613 162.386 31.1707 164.434 31.1707C164.946 31.1707 165.351 31.1067 165.65 30.9787C165.991 30.8507 166.268 30.7867 166.482 30.7867C166.866 30.7867 167.164 30.936 167.378 31.2347C167.634 31.5333 167.762 31.8533 167.762 32.1947C167.762 32.8773 167.442 33.304 166.802 33.4747C166.375 33.6453 165.906 33.752 165.394 33.7947C164.924 33.88 164.476 33.9227 164.05 33.9227Z" fill="#1A1A1A"/>
<path d="M180.848 33.9227C177.861 33.9227 175.472 33.048 173.68 31.2987C171.888 29.5067 170.992 27.0533 170.992 23.9387C170.992 22.232 171.376 20.696 172.144 19.3307C172.912 17.9227 173.978 16.8133 175.344 16.0027C176.752 15.1493 178.394 14.7227 180.272 14.7227C182.234 14.7227 183.856 15.1493 185.136 16.0027C186.416 16.8133 187.354 17.8373 187.952 19.0747C188.592 20.2693 188.912 21.464 188.912 22.6587C188.912 23.384 188.741 23.9813 188.4 24.4507C188.101 24.92 187.653 25.1547 187.056 25.1547H174.768C174.512 25.1547 174.32 25.176 174.192 25.2187C174.106 25.2613 174.064 25.4107 174.064 25.6667C174.064 26.392 174.298 27.1813 174.768 28.0347C175.237 28.888 175.898 29.6347 176.752 30.2747C177.648 30.872 178.672 31.2133 179.824 31.2987C181.061 31.384 182.277 31.256 183.472 30.9147C184.666 30.5733 185.733 30.04 186.672 29.3147C186.885 29.144 187.12 29.0587 187.376 29.0587C187.674 29.0587 187.952 29.1867 188.208 29.4427C188.506 29.6987 188.656 30.0187 188.656 30.4027C188.656 30.7867 188.464 31.1707 188.08 31.5547C187.056 32.3653 185.904 32.9627 184.624 33.3467C183.344 33.7307 182.085 33.9227 180.848 33.9227ZM184.88 22.9147C185.221 22.9147 185.477 22.7867 185.648 22.5307C185.818 22.232 185.861 21.8693 185.776 21.4427C185.648 20.3333 185.072 19.352 184.048 18.4987C183.024 17.6027 181.765 17.1547 180.272 17.1547C179.162 17.1547 178.138 17.432 177.2 17.9867C176.304 18.4987 175.578 19.16 175.024 19.9707C174.469 20.7813 174.192 21.6347 174.192 22.5307C174.192 22.744 174.384 22.8507 174.768 22.8507L184.88 22.9147Z" fill="#1A1A1A"/>
<path d="M10.3828 1.28125H1.38281V8.28125" stroke="#666666"/>
<path d="M10.3828 39.2812H1.38281V32.2812" stroke="#666666"/>
<path d="M26.3828 1.28125H35.3828V8.28125" stroke="#666666"/>
<path d="M26.3828 39.2812H35.3828V32.2812" stroke="#666666"/>
</svg>
