<svg width="39" height="43" viewBox="0 0 39 43" fill="none" xmlns="http://www.w3.org/2000/svg">
<path d="M20.0858 36.5592C17.9475 36.5592 15.9487 36.2106 14.0894 35.5133C12.23 34.7696 10.7658 33.7934 9.69667 32.5848C9.18535 32.027 8.92969 31.3762 8.92969 30.6325C8.92969 29.8423 9.23183 29.145 9.83612 28.5407C10.4404 27.9364 11.1609 27.6343 11.9976 27.6343C12.7878 27.6343 13.4619 27.9132 14.0197 28.471C14.8099 29.2147 15.8093 29.7958 17.0179 30.2141C18.2264 30.6325 19.4118 30.8417 20.5739 30.8417C21.7825 30.8417 22.8283 30.586 23.7115 30.0747C24.5947 29.5169 25.0363 28.6569 25.0363 27.4949C25.0363 26.5187 24.618 25.775 23.7813 25.2636C22.991 24.7058 21.643 24.2642 19.7372 23.9388C16.3439 23.381 13.7872 22.4514 12.0673 21.1498C10.3474 19.8018 9.48749 17.9192 9.48749 15.502C9.48749 12.8989 10.4869 10.8304 12.4857 9.29645C14.4845 7.71601 17.1108 6.92578 20.3647 6.92578C23.7115 6.92578 26.3843 7.78573 28.3831 9.50563C29.1734 10.1564 29.5685 10.9234 29.5685 11.8066C29.5685 12.5503 29.2663 13.2011 28.662 13.7589C28.1042 14.2702 27.4302 14.5259 26.64 14.5259C26.0357 14.5259 25.4779 14.3632 24.9666 14.0378C23.2002 12.9222 21.3409 12.3644 19.3885 12.3644C18.2264 12.3644 17.2503 12.5968 16.4601 13.0616C15.6698 13.5265 15.2747 14.2237 15.2747 15.1534C15.2747 16.1296 15.879 16.8965 17.0876 17.4544C18.3427 18.0122 20.1555 18.5235 22.5262 18.9883C23.8277 19.2207 25.106 19.6391 26.3611 20.2434C27.6626 20.8012 28.7318 21.6611 29.5685 22.8232C30.4517 23.9853 30.8933 25.5658 30.8933 27.5646C30.8933 30.2141 29.8706 32.3756 27.8253 34.0491C25.8265 35.7225 23.2467 36.5592 20.0858 36.5592Z" fill="#EEEEEE"/>
<path d="M10.8052 1H1V8.62624" stroke="#EEEEEE" stroke-width="1.08946"/>
<path d="M10.8052 42.3984H1V34.7722" stroke="#EEEEEE" stroke-width="1.08946"/>
<path d="M28.2339 1H38.0391V8.62624" stroke="#EEEEEE" stroke-width="1.08946"/>
<path d="M28.2339 42.3984H38.0391V34.7722" stroke="#EEEEEE" stroke-width="1.08946"/>
</svg>
