<svg width="148" height="32" viewBox="0 0 148 32" fill="none" xmlns="http://www.w3.org/2000/svg">
<path d="M14.7301 26.5873C13.1916 26.5873 11.7534 26.3365 10.4156 25.8348C9.07777 25.2996 8.02423 24.5973 7.25498 23.7277C6.88708 23.3263 6.70312 22.8581 6.70312 22.323C6.70312 21.7544 6.92052 21.2527 7.35532 20.8179C7.79011 20.3831 8.30852 20.1657 8.91054 20.1657C9.47912 20.1657 9.96409 20.3664 10.3654 20.7677C10.934 21.3029 11.6531 21.7209 12.5227 22.0219C13.3923 22.323 14.2451 22.4735 15.0813 22.4735C15.9509 22.4735 16.7034 22.2895 17.3389 21.9216C17.9743 21.5203 18.2921 20.9015 18.2921 20.0654C18.2921 19.363 17.9911 18.8279 17.389 18.46C16.8205 18.0586 15.8505 17.7409 14.4793 17.5068C12.0377 17.1054 10.1982 16.4365 8.96071 15.5C7.72322 14.5301 7.10447 13.1755 7.10447 11.4364C7.10447 9.56341 7.82356 8.07507 9.26173 6.97136C10.6999 5.8342 12.5896 5.26562 14.9308 5.26562C17.3389 5.26562 19.262 5.88437 20.7002 7.12186C21.2688 7.59011 21.553 8.14196 21.553 8.77743C21.553 9.31256 21.3356 9.7808 20.9008 10.1822C20.4995 10.5501 20.0145 10.734 19.446 10.734C19.0112 10.734 18.6098 10.6169 18.2419 10.3828C16.971 9.58013 15.6331 9.17878 14.2284 9.17878C13.3923 9.17878 12.6899 9.34601 12.1213 9.68046C11.5528 10.0149 11.2685 10.5166 11.2685 11.1855C11.2685 11.8879 11.7033 12.4397 12.5729 12.8411C13.4759 13.2424 14.7803 13.6103 16.486 13.9448C17.4225 14.112 18.3422 14.413 19.2453 14.8478C20.1818 15.2492 20.951 15.8679 21.553 16.7041C22.1885 17.5402 22.5062 18.6774 22.5062 20.1155C22.5062 22.0219 21.7704 23.5772 20.2988 24.7812C18.8607 25.9853 17.0044 26.5873 14.7301 26.5873Z" fill="#EEEEEE"/>
<path d="M32.7583 26.5873C31.3536 26.5873 30.0325 26.2696 28.795 25.6341C27.5909 24.9986 26.621 24.0789 25.8852 22.8748C25.1494 21.6708 24.7815 20.2326 24.7815 18.5603C24.8149 16.2526 25.5674 14.4298 27.0391 13.0919C28.5107 11.7207 30.4171 11.035 32.7583 11.035C33.6613 11.035 34.5476 11.1354 35.4172 11.336C36.2868 11.5367 37.0393 11.9046 37.6748 12.4397C38.1765 12.8411 38.4273 13.3595 38.4273 13.995C38.4273 14.5301 38.2267 15.0151 37.8253 15.4499C37.4574 15.8847 36.9892 16.1021 36.4206 16.1021C36.0527 16.1021 35.7182 16.0017 35.4172 15.801C34.9155 15.5335 34.464 15.3495 34.0627 15.2492C33.6948 15.1488 33.2767 15.0987 32.8085 15.0987C31.7047 15.0987 30.8017 15.4164 30.0993 16.0519C29.397 16.6874 29.0458 17.5402 29.0458 18.6105C29.0458 19.848 29.4304 20.8179 30.1997 21.5203C30.9689 22.1892 31.872 22.5236 32.9088 22.5236C34.0794 22.5236 35.1831 22.0888 36.2199 21.2193C36.6213 20.9182 37.0059 20.7677 37.3738 20.7677C37.9089 20.7677 38.3604 20.9851 38.7284 21.4199C39.1297 21.8547 39.3304 22.3564 39.3304 22.925C39.3304 23.1591 39.2802 23.4267 39.1799 23.7277C39.0795 23.9953 38.8956 24.2628 38.628 24.5304C37.725 25.2662 36.7551 25.7846 35.7182 26.0856C34.7149 26.4201 33.7282 26.5873 32.7583 26.5873Z" fill="#EEEEEE"/>
<path d="M48.6214 26.5873C46.3805 26.5873 44.5577 25.8849 43.153 24.4802C41.7817 23.042 41.0961 21.1356 41.0961 18.761C41.0961 16.3863 41.765 14.5134 43.1028 13.1421C44.4741 11.7374 46.2634 11.035 48.4709 11.035C50.0428 11.035 51.4141 11.5869 52.5847 12.6906C52.7185 12.2892 52.9693 11.9548 53.3372 11.6872C53.7051 11.4196 54.1399 11.2859 54.6416 11.2859C55.3105 11.2859 55.8457 11.4865 56.247 11.8879C56.6818 12.2558 56.8992 12.7073 56.8992 13.2424V24.6307C56.8992 25.1993 56.6818 25.6675 56.247 26.0354C55.8457 26.4033 55.3105 26.5873 54.6416 26.5873C53.5379 26.5873 52.8523 26.1023 52.5847 25.1324C51.5144 26.1023 50.1933 26.5873 48.6214 26.5873ZM48.9726 22.5236C50.0428 22.5236 50.8957 22.1725 51.5312 21.4701C52.1666 20.7343 52.4844 19.8313 52.4844 18.761C52.4844 17.6573 52.1666 16.771 51.5312 16.1021C50.8957 15.4331 50.0428 15.0987 48.9726 15.0987C47.9357 15.0987 47.0829 15.4331 46.414 16.1021C45.7785 16.771 45.4608 17.6573 45.4608 18.761C45.4608 19.8313 45.7785 20.7343 46.414 21.4701C47.0829 22.1725 47.9357 22.5236 48.9726 22.5236Z" fill="#EEEEEE"/>
<path d="M73.2601 26.5873C72.6246 26.5873 72.0894 26.4033 71.6547 26.0354C71.2533 25.6675 71.0526 25.1993 71.0526 24.6307V18.5101C71.0526 17.2727 70.7683 16.3863 70.1998 15.8512C69.6646 15.3161 68.9957 15.0485 68.193 15.0485C67.3569 15.0485 66.6545 15.3161 66.0859 15.8512C65.5508 16.3863 65.2164 17.0051 65.0826 17.7074V24.43C65.0826 24.9986 64.8652 25.4836 64.4304 25.8849C64.029 26.2528 63.5273 26.4368 62.9253 26.4368C62.2898 26.4368 61.7547 26.2528 61.3199 25.8849C60.8851 25.517 60.6677 25.0488 60.6677 24.4802V13.2424C60.6677 12.7073 60.8684 12.2558 61.2697 11.8879C61.7045 11.4865 62.2564 11.2859 62.9253 11.2859C63.4604 11.2859 63.912 11.4364 64.2799 11.7374C64.6478 12.0049 64.8986 12.3561 65.0324 12.7909C65.9354 11.6203 67.3067 11.035 69.1462 11.035C71.0192 11.035 72.541 11.5869 73.7116 12.6906C74.8822 13.7943 75.4675 15.5502 75.4675 17.9583V24.7311C75.4675 25.2662 75.2501 25.7177 74.8153 26.0856C74.4139 26.4201 73.8955 26.5873 73.2601 26.5873Z" fill="#EEEEEE"/>
<path d="M80.1892 26.5873C79.8547 26.5873 79.5537 26.4702 79.2862 26.2361C79.052 26.0354 78.9517 25.7177 78.9852 25.2829L81.2427 7.42288C81.3096 6.95464 81.527 6.60346 81.8949 6.36934C82.2963 6.13522 82.7311 6.01816 83.1993 6.01816C83.6007 6.01816 83.9686 6.11849 84.303 6.31917C84.6709 6.48639 84.9218 6.77068 85.0556 7.17203L89.4704 18.8112C89.6711 19.246 89.8717 19.4634 90.0724 19.4634C90.2397 19.4634 90.4236 19.246 90.6243 18.8112L94.989 7.17203C95.1562 6.77068 95.407 6.48639 95.7415 6.31917C96.0759 6.11849 96.4438 6.01816 96.8452 6.01816C97.3469 6.01816 97.7817 6.13522 98.1496 6.36934C98.5509 6.60346 98.7683 6.95464 98.8018 7.42288L101.059 25.2829C101.126 25.7177 101.026 26.0354 100.758 26.2361C100.491 26.4702 100.19 26.5873 99.8553 26.5873C99.5877 26.5873 99.3369 26.487 99.1028 26.2863C98.8687 26.1191 98.7182 25.8682 98.6513 25.5338L96.9455 10.3327C96.8786 10.0651 96.7783 9.93131 96.6445 9.93131C96.5107 9.93131 96.3769 10.0484 96.2432 10.2825L91.5775 22.3731C91.2096 23.1424 90.6912 23.527 90.0223 23.527C89.3868 23.527 88.8851 23.1424 88.5172 22.3731L83.8013 10.2825C83.701 10.0484 83.5672 9.93131 83.4 9.93131C83.2662 9.93131 83.1659 10.0651 83.099 10.3327L81.3932 25.5338C81.3598 25.8682 81.2093 26.1191 80.9417 26.2863C80.7076 26.487 80.4568 26.5873 80.1892 26.5873Z" fill="#1A1A1A"/>
<path d="M111.433 26.5873C109.359 26.5873 107.653 25.8849 106.315 24.4802C104.977 23.042 104.309 21.2025 104.309 18.9617C104.309 16.7877 104.977 15.0151 106.315 13.6438C107.653 12.2391 109.359 11.5367 111.433 11.5367C113.573 11.5367 115.295 12.2892 116.6 13.7943V12.8913C116.6 12.5234 116.717 12.2558 116.951 12.0886C117.185 11.8879 117.436 11.7875 117.704 11.7875C118.005 11.7875 118.272 11.8879 118.506 12.0886C118.74 12.2558 118.857 12.5234 118.857 12.8913V25.4334C118.857 25.7679 118.74 26.0354 118.506 26.2361C118.306 26.4702 118.038 26.5873 117.704 26.5873C117.369 26.5873 117.102 26.4702 116.901 26.2361C116.7 26.0354 116.6 25.7679 116.6 25.4334V24.2294C115.998 24.9652 115.245 25.5505 114.342 25.9853C113.473 26.3866 112.503 26.5873 111.433 26.5873ZM111.433 24.5304C113.004 24.5304 114.259 24.0621 115.195 23.1257C116.132 22.1892 116.6 20.8012 116.6 18.9617C116.6 17.189 116.132 15.8512 115.195 14.9482C114.259 14.0451 113.004 13.5936 111.433 13.5936C109.994 13.5936 108.824 14.112 107.921 15.1488C107.051 16.1857 106.616 17.4566 106.616 18.9617C106.616 20.5336 107.051 21.8547 107.921 22.925C108.824 23.9953 109.994 24.5304 111.433 24.5304Z" fill="#1A1A1A"/>
<path d="M128.507 26.5873C127.136 26.5873 126.066 26.1859 125.297 25.3832C124.527 24.5471 124.143 23.4099 124.143 21.9718V14.5468C124.143 14.2124 123.976 14.0451 123.641 14.0451H122.387C122.119 14.0451 121.885 13.9448 121.685 13.7441C121.484 13.5435 121.384 13.3093 121.384 13.0418C121.384 12.7742 121.484 12.5401 121.685 12.3394C121.885 12.1387 122.119 12.0384 122.387 12.0384H123.641C123.976 12.0384 124.143 11.8712 124.143 11.5367V6.87102C124.143 6.50312 124.26 6.23555 124.494 6.06832C124.728 5.86765 124.979 5.76731 125.247 5.76731C125.548 5.76731 125.815 5.86765 126.049 6.06832C126.283 6.23555 126.4 6.50312 126.4 6.87102V11.5367C126.4 11.8712 126.568 12.0384 126.902 12.0384H130.414C130.681 12.0384 130.916 12.1387 131.116 12.3394C131.317 12.5401 131.417 12.7742 131.417 13.0418C131.417 13.3093 131.317 13.5435 131.116 13.7441C130.916 13.9448 130.681 14.0451 130.414 14.0451H126.902C126.568 14.0451 126.4 14.2124 126.4 14.5468V21.8213C126.4 23.5605 127.203 24.43 128.808 24.43C129.21 24.43 129.528 24.3799 129.762 24.2795C130.029 24.1792 130.247 24.129 130.414 24.129C130.715 24.129 130.949 24.2461 131.116 24.4802C131.317 24.7143 131.417 24.9652 131.417 25.2327C131.417 25.7679 131.166 26.1023 130.665 26.2361C130.33 26.3699 129.962 26.4535 129.561 26.487C129.193 26.5539 128.842 26.5873 128.507 26.5873Z" fill="#1A1A1A"/>
<path d="M141.675 26.5873C139.334 26.5873 137.461 25.9017 136.056 24.5304C134.652 23.1257 133.949 21.2025 133.949 18.761C133.949 17.4232 134.25 16.2191 134.852 15.1488C135.454 14.0451 136.29 13.1755 137.361 12.5401C138.464 11.8712 139.752 11.5367 141.224 11.5367C142.762 11.5367 144.033 11.8712 145.036 12.5401C146.04 13.1755 146.776 13.9782 147.244 14.9482C147.746 15.8847 147.996 16.8211 147.996 17.7576C147.996 18.3262 147.863 18.7944 147.595 19.1623C147.361 19.5302 147.01 19.7142 146.542 19.7142H136.909C136.708 19.7142 136.558 19.7309 136.458 19.7644C136.391 19.7978 136.357 19.9149 136.357 20.1155C136.357 20.6841 136.541 21.3029 136.909 21.9718C137.277 22.6407 137.795 23.226 138.464 23.7277C139.167 24.1959 139.969 24.4635 140.872 24.5304C141.842 24.5973 142.796 24.4969 143.732 24.2294C144.669 23.9618 145.505 23.5437 146.241 22.9752C146.408 22.8414 146.592 22.7745 146.792 22.7745C147.027 22.7745 147.244 22.8748 147.445 23.0755C147.679 23.2762 147.796 23.527 147.796 23.828C147.796 24.129 147.645 24.43 147.344 24.7311C146.542 25.3665 145.639 25.8348 144.635 26.1358C143.632 26.4368 142.645 26.5873 141.675 26.5873ZM144.836 17.9583C145.103 17.9583 145.304 17.858 145.438 17.6573C145.572 17.4232 145.605 17.1389 145.538 16.8044C145.438 15.9348 144.986 15.1656 144.184 14.4967C143.381 13.7943 142.394 13.4431 141.224 13.4431C140.354 13.4431 139.551 13.6605 138.816 14.0953C138.113 14.4967 137.545 15.0151 137.11 15.6505C136.675 16.286 136.458 16.9549 136.458 17.6573C136.458 17.8245 136.608 17.9081 136.909 17.9081L144.836 17.9583Z" fill="#1A1A1A"/>
<path d="M8.05496 1H1V6.48719" stroke="#EEEEEE" stroke-width="0.783885"/>
<path d="M8.05496 30.7891H1V25.3019" stroke="#EEEEEE" stroke-width="0.783885"/>
<path d="M20.5935 1H27.6484V6.48719" stroke="#EEEEEE" stroke-width="0.783885"/>
<path d="M20.5935 30.7891H27.6484V25.3019" stroke="#EEEEEE" stroke-width="0.783885"/>
</svg>
